<?xml version="1.0" encoding="UTF-8"?>
<svg version="1.1" viewBox="0 0 1800 1284" width="1280" height="1280" xmlns="http://www.w3.org/2000/svg">
<path transform="translate(1322,103)" d="m0 0h15l12 2 16 4h7l10-3 16 3 11 6 4 4 1 6-1 5 5 6-2 15-3 3-7 4-8-1 4 8 10 3h6l3-6h2v6l1 2v6l-5 2-8 1-2 3 3-2h5l-1 5-3 2h-8l-4 6-6 4-7 4-5 5 3 3 6 3-1 4-5 4-1 3 8-1 20-3 8-2h9l10 1 2-1h16l-1-10 15 2 5 6 2 4-1 5-5-1v-2h-3l2 3 5 2-3 5-6 2 3 6-2 8 3 2 16 2 9 3-1 7-7 14 1 7 3 10h2l2-3h2l2 4v5l-2 2h-6l-9 3-3 10 7-2 8 3h8v-2l3-2h9l2 4-5 2 4 2 21 1 6-1 1 9 4 2 2-12 11 1 5-1 3 5 5 9 6 12 3 9v5l-5 3-10-2-6-11-4 4-6-1 1-4-2-2-2-5v-4h-2v4l-6-1 4 6 2 6-8 4-1 2v8l2 3 8 3 7 1 9 4 2 1v6l-3 4-2 10-8-1-6-3-5 1v6l6 11-8 4 2 6 5 5 7 6v6l11 3 8 7 2 2-2 9-4 7-1 5 10-2 8-4 8 6 1 3 3-1 10 3 13 7 8 6 3 5 1 4v14l-2 3-6-1-7-3-2 2-14-1-13-2-18-2-5-1 3 6 3 4-1 5-13 5-11 1-2 2 4 10-1 13-2 3h-2l-2 9h-3v-4h-3l2 10-1 2v18l-5 21-2 4-4-2 1-5 3-3-4-5-1-5v-5l-7 4-6 8-8-2-6-5 3-6-7 3-2 6 1 10-9 9h-4l1 9-1 7h-3l-1-4v-9l-5-3-2-4v-10l2-11 4-1 2 7 4-1 1-3-1-3-4-2-6-7-3-5-4-6-1-1-1 4-9 2-3 5-5 3-2-3v5l-5 5-1 3 3 3-1 8-1 2 8 4 4 5 3-1 3 3 1 6-2 8-1 20-5 2-5-5-8-10-3-10v-20l1-2-16-3-1-4 4-5 4-4-7-2-1-6 1-2-9 3-8 5-3 8-2 7-5 1v-12l1-2h2l-3-9v-5h-24l-2 12h-92l-3-1v-2l-3 2-29 1-68 1 32 1v6l-1 2h4l1 6v6l12-1h31l10 1-1-6 4-1h9l7 3-4 1h-10l-2-1-1 3 17-1 2 2v3l5-1 1-4h24l5-1 11 1 34 1-16-1h-11l-14-2-9-3-1-4 17 1 4 1 23 1 10 1 2 5 30 1 6 2 2 2-5 1v2l-6 3-17 1-7-1-88 2-22 2-5 1-2 4h-2v2l-21 1h-41v3l4 2 4 1 20 1 1-3 24 1 7 1 1-4 8 1 13-2 14-1h16l13 2 13 4-1 5-8 12 4 3 4 1h12l13-1 10-7 4-2 10-1 2 2 1 6 7 2 5 3 1 6v5l10 1 7 3 1-6 9-2h7l14-3-6-2v-2l18-2 14-3 11-2 33-1 12 3 1 3-15 4 2 2 11 4 11 8 8 4 11 8 8 9 4 11-1 6-8 4-8 3-11 7-8 2h-11l-9-1-1 3 2 7 8 5 8 4 10 2h34l3-2h32l11 4 6 4 3 3 4 9-1 7-5 6-9 2-6 3h-3l3 5 7 10 1 19 10 1 4 4 1 4-2 2-4 1h-9l-6-2-3-9-2-1-1 3-5 1-5-3-1-2v-9l-3-3-19-9-15-4h-13l-3-2-34-7h-6l-4 4 1 7 13 12 6 5 9 20 1 6v21l-3 5-6 3-9 3-13 8-5 1-4-3 1-4 5-4 8-7v-2l-2-1h-12l-5 2h-15l-12-4-11-1-1 3h-2v2h3l1 7-4 4h-2l-2 4-13 4-10 1-1 6-3 2-11 1-11-1-5 1-6-3-10-2-7-3-6-1-2-2-2 9-3 6-4 1v-5l-4-2-12-2-5 1-8-2h-6l-6-2-15-3-6-2h-29l-2 1-26-2h-16l-28-1h-21l-17-1-7-1v-2l6-1h16l-1-6-21-4-8-1-39-1v6l8 2-4 1-5 1 13 3v2l8 2 10 2v3l-24 2-2 1-13-1-27-3-14-2-9-1-4-2-26 2-2 1-40 1-19 1-11 3v2l17 1 6 2 1 5 3-1v2h-2l1 2 7 3 3-1v-5l-3-1 2-1 9 2 6 3-1 5-3 2 1 4 14 3 9 2 7 1 9 1 12 6h3l1-4h25l8-1h14l16 2 2 3 3-1h15l14 2 21 4 11 2 1 2h21l21 4v2l8-1 6-3h6l2 1v11l4 5-5 1-5-2-6-3h-6l-6 2h-4v2l-7 5-10 2h-11l-37-3-5-3-2-1h-13l7 2 13 3 9 1 4 2-2 2h-9l-7-2 2 6 4 2v2l-8 3h-13l-9-3-7-4v-2l4-2h3v-2l-8-2-12 1 5 5v2l-6 2 4 4 8 4 2 4 16 2 19 4 13 5 2 1v2h-21l-19-2-9 1h-12l-21-1-3-1h-21l-2 1h-10l-17-1-24 3-1 7 9 3 16 4 24 3 19 2 8 3-1 4-12 2h-49l-13-2h-9l-16 3-9 2-15 1h-130l-1-1-73-2-44 1-25 2-67 3h-19l-27-1h-36l-19 3-1 1 7 1 50 2 32 1-2 4-7 1-75 2h-24l-23-2-31-1-14-4-6-5-3-7 1-6 8-5 5-1-7-2-1-1h-5l-3 3-5-2-1-5 8-5 13-3 5-3 12-2v-2l-2-1v-2h2l-3-5-3-1-16 1-7 1h-41l-2 4h-7l-12-2 2-4h2l2-4 1-6-3-5-24-4-1-2 8-4v-10l-18-12-10-3-9-2h-8l-4-1h-13l-4 2-14-3-11 1 5-5 1-3-4-5-5-3v-5l14 1 8 4 5 3 10 1h3l2-4 5-5-2-3-7-2-14-2-4-2 1-7 3-3 12 1 4-3 1-12-9-4-6-4-14-5-1-3 5-9h-10l-7 1-11-2-9-2-10-1-4-3-8-3-6-4 1-8 5-2 6 2 51 1-1 10 10 4 2-6 4-4-2-6 10-2 1-7-1-13 7-2 3-2 1-17 5-10 3 1 6 8 3 1 5-5 4-7 2 2 2 7 5 2 10 1-1-10h10l16 2-1 4-9 2h-8v3l6 1 10 4 7 1h8l10-4 1-2-1-5 3-1 18 2 10 4h6l6 3 1-5h6l2 7 6 2 10 1 11-3 2-7 10-1h-17l-39-1-32-3-16-2-8-2-22-1-33-3-3-1-57-6-35-5v-4l9-5 2-4-3-2v-2l2-1h10l9-3 8-5 10-5 11-1 8 2-4-6 1-2 12-4 34-5 28-3 17-1 10-2h4l1-3 6-3 12-1h39l26 1 2 2 27 1h35v-5l-1-1-12-1h-32l-12 1h-71v-2l20-2h104l146-2h25l23-1 1-2-7-1-19-1-4-2-1-6 1-6h-59l-79-2-32-2-7-3-7-2-39-5-18-1h-10l-16 2h-9l-5-3-3-3 1-6-2-2 1-4 9-4 4-1 13-1 2-1 28-1 31-3 6-2 7-1-8-2-1-3 2-1 29-1v-2l-6-2-8-4-15-4-1 5-25-1-36-5-12-5-2-5 21 3 3-1v-2l5 2v1l25 2 6 3 15 3-1-4 3-1 15-1h63l15 1 2 2h5l4-1 21-1 1-2 19-1h12l4-2 28 1 1-1 31 1 2-1 30-2 1-4 7-2 31-3 22 2 5 1 30 2v3l36-3 20-3h4l10-3 9-4h18l1 3 10-2 13-3 3-2 8 1 26 1 16 2 5-1v3l7 1h12l7-3 7-2h11l-13-3-9-1-5-1-5 3-11 1h-32l-19-1-3-2-2-4-3-1h-24l-4 1-20 1-7-2h-6l-4 2h-18l-5-3-1-4h-10l-1-4 1-3-14-3-9-1h-9-3l-15-4-12-3-5-3h-18l-6-1-19-1-9-2 1 7-4 4-2 4 6 3v2h-2v3h-7l-8-2-15-1-10-3-12-1v-3h-2l-1 2-4-1-3 3h-2l-1 4-2-1v-2l-4-3-16-2v4h2l1-2h4l-1 10-2 1-3-3h-4v-8l1-2h-22l-12-1-2-4h-12v2h-2v-2l-12-2-2-5-3 1-1 8-3 1-1 2h-2v-2l-4-1-4-6-9-2v4l-10-1-4 1-4-6-18-2-5-2-5 2h-6l-4-2-7 1-11-2-6-1-1-3h3l-1-5 10 1 3 2 1-4 9 2 10 2h5l2 4 3-3h11l5 3 19 2 3-1 12 1 2-1 11-1 7 1 2 2 6 2 2 2h7l5 3 6 1h23l5-1 1 3h7l7 3h32l15 4 4 1 15 1-3-4-3 1-1-5 1-8v-3l-14-4-3-2-2 3h-13l-4-2-7-1v2l10 2 6 1 10 5 2 3-1 5h-17l-3-5h-3l-1 1-13-1-3-2 2-4 5-1 2-1v-3l-5-1h-11l-2-1 1 5 4 2-1 4-4 1-12-4-9-4-2-1v-3h10 1l-18-2-15-1-4-3-7-1-7 1-15-4v2l-4-1v-2l-9-1v-3l-1-1-1 2h-13l-23-5-2-1 1-5-9-1-2 3-12-2-5-4-6-3-10 1-18-2-4-3h-7l-5-4-1 1-9-1-1-4 2-1h14l18 3 27 5 13 2 8 6 1-1h9l10-2-9-2-7-3-5-2-2-2v-3l11 1h3l7-1 2 1-1-2h-10l-6-2v-3l3-1 12 2 5 2 7 2 2 4 7-1 1-3-18-6 2-4 4-1 1-2 3 1 11 3h5l-4-4-6-1-3-3-6-1v-2h6l6-7 1-3-3-1 5-5-5 3-3-1 2-6-5-2-5 1-2 1-5-2v-3l-5 2h-4l7 2 1 2h3v4l-4 1-2-2v2l-11-2-8-1-1-3 7-2 2-3-4-1-1-5 6-2 2-2-4-2h-7l-2-3 5-1h4l1-4 4 2 5 2 6 1 1-6h8 3v3l4 1h8v-4l6-2v-5l5-1v-2l9 1 6 7 3-1-2-5 3-1v-4h3l1 3 7 7-1 4-2 5-10 2h-7l8 2 6 3-1 8 7 5 7 3v2l4 2 2 3 1 10-5 3 1 5 4 4v6l-3 1-24-1-12-3 4 3 13 4 7 3 3 2 5 1 1-5h2v-2l5-1 7 1 9-2 1-5h4l1-4 6 1 8 5h5l6-3-9-4h-2l2-5-10 1-1 1h-9v-3h5l1-3 10-5 1-2-9-3h-9l-8-9-1-4-4-1-3-3v-2l-8-2-6 1-4-1 2-2h12l6-1v-2h-8l-4-6 1-2h11l20 5 1-4h2v5l5 6v4l6-2 3-3h5v2l4 1 2 1 1-2-5-2-2-6-7-1-1 2v-3l3-4h14v4h-3l1 3 2 2 1 5-1 4h-2v6h-8l-1-2-3-1 1 5 8-1 4-1 1-5 10-1 2-3-6-3 1-5v-4l-1-2-4-1-2-3-19-2-11-1-3 1h-9l-1-4-3-1v-3l-5-1-1-2-2 3-4-1-4-5 1-6 3-2h24l5 2 9 2h7l13 4 3-1 3 3 14 1 7-1 2-3 3 1 2 3 13-1 13-5 5-1 1 7-1 2 5-2 5 1 9 2 4-1 2 3 17 2v-5l3 1 2 7 2 2 9 2 5 2h1v-6l4-2 7 1 7-2h11l10 2 13-2 1-1 9-1 1-1h7l4 2 4-3 6-2 2-5 4 1 5-3 1-5-6 1-3 5-2-1-1-2-7-2-2 5-5-2v-2l-5-1-1-4h3l2 1 1-2-3-1-1-4-9-2-9-3-2 5-5-1-3-4 2-10 3-3 4-1v-5l-3-3-7-2-2-1h-9l-2-3-4-2-1-5-5 1-3 5-4-1-4-5-3 1-1 2h-2l1-4 1-3-1-4 3-1-5-3h-7l-3 1v8l-3 4-3-1v-2l-12-2-9-1-13 5-11-6-11-2v-3l-15 1h-12l-5-2-3-2-1 2-10-5-9-1-12-5v-2l3-1 16 4h12l-17-2-14-3-2-4-4 1-1 1-12-1-20-4-3-6 1-10 20 4 12 5 6 2 5-3h14l4 2 36 3 4 1h24l3-1v3h9l-1-6-3-3-6-1-2-5 4-1 10 1 2 1h11l-2-10-4-1 1 5-8 3-21 1-16-3-5-2-4 1h-11l-10-4h-8l-7 1v-2l-42-3-6-2v-3h24l23 1h4l-2-7 9 3 1 3 8 1 6-1h28l3 1-3-4-18-3-26-1-8-1v-4l16 2 4-1v-12l-8-4 1-9 1-1h8l8 2 3 3 7 1 3 3v2l6 1-1 3h-2l-1 3-11-1-3-1v3l6-1 4 2 2 4 8 3 3 3 3 1-1-5 10 1 5 3 1 6-1 1-13 1v5l1 3h2v-5l1-1h20l4-1-4-13-3-3-7 1h-12v-3l-1-4-2 1-3-2v-3l5-1 2-1v-7l-4-4-5-2v-4l4-1-3-5-10-3-3 1-7-3v-3l-5-1 1-3 6-2-6-1-2 1-1 3h-6l-4-2 3-1v-2l-5 1-5-3-9-2-2-1 1-5 4-1 14 2h8l6 2v2l19-4 3 2 16 1 3-4 5 1 2 4h8l2 1h11l4-2h19l10 1 4-2h9l2 1 1-3 13-2 1-2-6-2-1-4 1-5-2-4-13-7-5-3-8-4-9 1-11-3-9-1-14-4-8-6v-2l11-4 4-1 4 1 9-5 12-1 9 1 7 1 11 3 17 2h7l3-3 10-2 4-2 4-5h36l15 1h76l22 2 5 1h50l20 2 25-1 23-2 5-1 34-2 4-1 10 1 9-2 16-3 3-2 11 1h18l1 1 41 4h15l9-2 8-3 1-2 14-6-4-1h-14l-3-1h-34l-2-2-19 2-11-1-9 1-18-1-3-3 2-1h11l-1-2-3-1v-3l9-1 17 1 11-3h39zm63 30-10 4 1 8 5 1 8-5 2-3 3-1-2-4zm18 3-2 4 3 5h4l1-7-1-2zm-707 74m-19 62v2h2v-2zm783 0-1 2h2l1 2v-2l2 2 3 2 6 3h2l-1-5-7-4zm-4 2-1 2h4v-2zm-5 1 1 4 2 4-3 1v2l-4 2-1 3 2 5 1 7 3 3 9 2 5-1v-4l-1-3 4 1-3-4-1-9 6-1 2-3-8-5-8-1 1 3-3-3-1-3zm-679 16m722 5 1 2zm-737 1-1 9 5 1v-5l2 1 2 6 5 2h7l2-5 21 1v-3l-16-3-21-4-1 4h-2l-2-4zm-34 23v3h6v-2zm0 4m31 0m-66 1m77 0-1 3 4 2 1-2-2-3zm50 5v4l4 2 3-2v-2l-4-2zm-34 8m52 4-4 5 3 2 5-4-1-3zm5 7m22 8-9 5-8 6v2l4 1v-3h5l7 6 5 1 1-3v-9l-2-6zm6 3 3 7-1 3h3l-1-8zm-26 10m-225 25 3 3-1-3zm21 5 1 2 1-2zm-4 1m66 0m-69 0-3 2h4zm56 2-9 1v2l10 2 17-1-1-4zm-94 3m1 1m3 2 1 2zm116 1v2l5 2v-2zm-115 1m111 1-1 2h3v-2zm-28 1v2l9 1 5 3h5l1-2-9-2-3-2zm126 4-4 2 4 2 2-4zm-235 2-2 4 5 3 4-2-2-4zm-49 1m170 5v3zm-6 6m6-1-2 2h2l1 2v-4zm-52 3-5 3 2 4 5 3 5-1 3-3v-5zm74 16 1 3 13 4 3-2-11-3zm-5 8-3 2 2 4 5 3 6 2v3h-6l-2 1 2 4 4 2 20 3 9 3 4 3 8 2 20 1h15l7-1 2-5 12-1 5 1 2 3 3-2 7-2 1-4-7-2-13-2-19-2-6-2-17-1-29-8-23-5zm816 0-4 3v2l-5-4h-2v2l2 1 1 7h-10l-2 2 2 1h17v-3-3l2 1 2 4 4 1h9l1-4-3-8-4-2zm-19 1-3 2-12 1 1 3 8 1 8-5 3-2zm14 1m-958 3v3h2l-1-3zm79 2m-64 1 1 2 3-1zm19-1-9 1 3 2 7 1 5-1-1-3zm46 1m902 5-1 8 5 5 3 1-1-5-3-9zm-994 3v1h6v-1zm19 0 2 1 1 2 3-2zm-13 1 2 1-1 4h2l1-4zm1e3 1v3l6 2-1 10-1 3h-2l-1 2v15h4l4-5 5-5v-12l-4-8-6-5zm-989 1-1 2h3v-2zm-10 5m24 1v3h2l-1-3zm-27 2m265 3m-208 2 3 2 10 1-1-2-3-1zm206 3m-292 6m-1 3m1e3 24-1 5 1 2 4-1 2-4-2-2zm-859 8m-23 21v2l3-1zm811 8-1 2 2 2v-4zm4 6m-403 8m5 1m25 0-2 1v2l-3-1-16-1 3 2 7 4 3 5 9 4 4-1-3-2-5-3 1-1h5l4 3 2-2 13-1 9 1-2-2-11-4-5-4zm52 12m3 0m35 14-27 1v7h49v-8zm111 9v1h22v-1zm-81 4 3 6 3 1h13l5-1v-5l-2-1zm-23 1 1 2h2v-2zm63 0-1 2 4-1zm5 1m224 0m-32 10 2 9 4 1 2-4v-4l-4-2zm-164 9-22 3-12 1 3 2 38-4 7-1v-1zm15 0m-13 9-32 4-3 2 8 5 6 2h22l10-3 2-2v-3l-3-1-1-3-2-1zm-493 45-5 1-85 1-1 1h-17l-4-1-17 1-4 1h-28l-4 2 1 1 9 1h21l9 3 6 1h11l3-3v-2l10 1 5 4 68 3 1 1h18l21-3 10-2 10-3v-3l-14-3-14-1-2-1zm-172 97 4 8 3 1 1 2h-6l4 6h16l21 1h26l2-4-1-4-2 1v-4l-21-3-18-2h-7l-3-2zm-340 23 1 5h3l-3-5zm732 20m1 1m-20-6v7l-7 1 3 3 14 5 19 3 16 2 11 2 5 3 11 1 4 1 5-1v-2l6-1 30 4 2 1 32 2h17l7-6-1-4-11-5-15-5-5-1-14-1-6-1-1 1h-10l-23-3h-23v3l8 5 27 1v4h-2l-3 3-12-1-9-3h-24l-12-4-14-7-8 1v-4l-9-3zm494 7-1 1v6l4 1 3-1 1-5-2-2zm-1236 7m2 1m3 1 4 2 9 4 8 4 8 1 5-1 19-1 7-2-1-3-11-2h-18l-18-1zm1156 4-1 4 3-1-1-3zm-374 5m4 1v1h5v-1zm10 0-3 2 16 3 9 2-1-3-7-2zm36 70m-1 1m-2 1-1 2 3-1zm-779 5v3l8 3h10l5-3v-3zm734 0-9 3v2l10 2h9l8-1v-2l-10-2zm-689 4-7 5-1 8 4 3h8l8-5 1-7-3-3-2-1zm726 0-9 3v3l6 3 30 3 17 1 6 1 22-5v-2l23-1v-2h-25l-23-2-35-2zm-12 1m-28 5v2l12 6 6 7 4 3 5-1 1-1 7-1-2-1-1-3-11-2-3-1 2-6-5-2zm163 1v2l3-1zm4 1 2 2v-2zm-43 3 1 2 18 2-1-2-16-2zm21 3v1l7 1v-2zm-109 7m-646 64-4 3v3h14l4-2-5-4zm-13 2v3h2v-3z" fill="#0440A4"/>
<path transform="translate(1322,103)" d="m0 0h15l12 2 16 4h7l10-3 16 3 11 6 4 4 1 6-1 5 5 6-2 15-3 3-7 4-8-1 4 8 10 3h6l3-6h2v6l1 2v6l-5 2-8 1-2 3 3-2h5l-1 5-3 2h-8l-4 6-6 4-7 4-5 5 3 3 6 3-1 4-5 4-1 3 8-1 20-3 8-2h9l10 1 2-1h16l-1-10 15 2 5 6 2 4-1 5-5-1v-2h-3l2 3 5 2-3 5-6 2 3 6-2 8 3 2 16 2 9 3-1 7-7 14 1 7 3 10h2l2-3h2l2 4v5l-2 2h-6l-9 3-3 10 7-2 8 3h8v-2l3-2h9l2 4-5 2 4 2 21 1 6-1 1 9 4 2 2-12 11 1 5-1 3 5 5 9 6 12 3 9v5l-5 3-10-2-6-11-4 4-6-1 1-4-2-2-2-5v-4h-2v4l-6-1 4 6 2 6-8 4-1 2v8l2 3 8 3 7 1 9 4 2 1v6l-3 4-2 10-8-1-6-3-5 1v6l6 11-8 4 2 6 5 5 7 6v6l11 3 8 7 2 2-2 9-4 7-1 5 10-2 8-4 8 6 1 3 3-1 10 3 13 7 8 6 3 5 1 4v14l-2 3-6-1-7-3-2 2-14-1-13-2-18-2-5-1 3 6 3 4-1 5-13 5-11 1-2 2 4 10-1 13-2 3h-2l-2 9h-3v-4h-3l2 10-1 2v18l-5 21-2 4-4-2 1-5 3-3-4-5-1-5v-5l-7 4-6 8-8-2-6-5 3-6-7 3-2 6 1 10-9 9h-4l1 9-1 7h-3l-1-4v-9l-5-3-2-4v-10l2-11 4-1 2 7 4-1 1-3-1-3-4-2-6-7-3-5-4-6-1-1-1 4-9 2-3 5-5 3-2-3v5l-5 5-1 3 3 3-1 8-1 2 8 4 4 5 3-1 3 3 1 6-2 8-1 20-5 2-5-5-8-10-3-10v-20l1-2-16-3-1-4 4-5 4-4-7-2-1-6 1-2-9 3-8 5-3 8-2 7-5 1v-12l1-2h2l-3-9v-5h-24l-2 12h-92l-3-1v-2l-3 2-29 1h-68l-47-2-2 1-15-6-5-4h-15v2l-14-1v-3l-36-5-10-1-5 3-11 1h-32l-19-1-3-2-2-4-3-1h-24l-4 1-20 1-7-2h-6l-4 2h-18l-5-3-1-4h-10l-1-4 1-3-14-3-9-1h-9-3l-15-4-12-3-5-3h-18l-6-1-19-1-9-2 1 7-4 4-2 4 6 3v2h-2v3h-7l-8-2-15-1-10-3-12-1v-3h-2l-1 2-4-1-3 3h-2l-1 4-2-1v-2l-4-3-16-2v4h2l1-2h4l-1 10-2 1-3-3h-4v-8l1-2h-22l-12-1-2-4h-12v2h-2v-2l-12-2-2-5-3 1-1 8-3 1-1 2h-2v-2l-4-1-4-6-9-2v4l-10-1-4 1-4-6-18-2-5-2-5 2h-6l-4-2-7 1-11-2-6-1-1-3h3l-1-5 10 1 3 2 1-4 9 2 10 2h5l2 4 3-3h11l5 3 19 2 3-1 12 1 2-1 11-1 7 1 2 2 6 2 2 2h7l5 3 6 1h23l5-1 1 3h7l7 3h32l15 4 4 1 15 1-3-4-3 1-1-5 1-8v-3l-14-4-3-2-2 3h-13l-4-2-7-1v2l10 2 6 1 10 5 2 3-1 5h-17l-3-5h-3l-1 1-13-1-3-2 2-4 5-1 2-1v-3l-5-1h-11l-2-1 1 5 4 2-1 4-4 1-12-4-9-4-2-1v-3h10 1l-18-2-15-1-4-3-7-1-7 1-15-4v2l-4-1v-2l-9-1v-3l-1-1-1 2h-13l-23-5-2-1 1-5-9-1-2 3-12-2-5-4-6-3-10 1-18-2-4-3h-7l-5-4-1 1-9-1-1-4 2-1h14l18 3 27 5 13 2 8 6 1-1h9l10-2-9-2-7-3-5-2-2-2v-3l11 1h3l7-1 2 1-1-2h-10l-6-2v-3l3-1 12 2 5 2 7 2 2 4 7-1 1-3-18-6 2-4 4-1 1-2 3 1 11 3h5l-4-4-6-1-3-3-6-1v-2h6l6-7 1-3-3-1 5-5-5 3-3-1 2-6-5-2-5 1-2 1-5-2v-3l-5 2h-4l7 2 1 2h3v4l-4 1-2-2v2l-11-2-8-1-1-3 7-2 2-3-4-1-1-5 6-2 2-2-4-2h-7l-2-3 5-1h4l1-4 4 2 5 2 6 1 1-6h8 3v3l4 1h8v-4l6-2v-5l5-1v-2l9 1 6 7 3-1-2-5 3-1v-4h3l1 3 7 7-1 4-2 5-10 2h-7l8 2 6 3-1 8 7 5 7 3v2l4 2 2 3 1 10-5 3 1 5 4 4v6l-3 1-24-1-12-3 4 3 13 4 7 3 3 2 5 1 1-5h2v-2l5-1 7 1 9-2 1-5h4l1-4 6 1 8 5h5l6-3-9-4h-2l2-5-10 1-1 1h-9v-3h5l1-3 10-5 1-2-9-3h-9l-8-9-1-4-4-1-3-3v-2l-8-2-6 1-4-1 2-2h12l6-1v-2h-8l-4-6 1-2h11l20 5 1-4h2v5l5 6v4l6-2 3-3h5v2l4 1 2 1 1-2-5-2-2-6-7-1-1 2v-3l3-4h14v4h-3l1 3 2 2 1 5-1 4h-2v6h-8l-1-2-3-1 1 5 8-1 4-1 1-5 10-1 2-3-6-3 1-5v-4l-1-2-4-1-2-3-19-2-11-1-3 1h-9l-1-4-3-1v-3l-5-1-1-2-2 3-4-1-4-5 1-6 3-2h24l5 2 9 2h7l13 4 3-1 3 3 14 1 7-1 2-3 3 1 2 3 13-1 13-5 5-1 1 7-1 2 5-2 5 1 9 2 4-1 2 3 17 2v-5l3 1 2 7 2 2 9 2 5 2h1v-6l4-2 7 1 7-2h11l10 2 13-2 1-1 9-1 1-1h7l4 2 4-3 6-2 2-5 4 1 5-3 1-5-6 1-3 5-2-1-1-2-7-2-2 5-5-2v-2l-5-1-1-4h3l2 1 1-2-3-1-1-4-9-2-9-3-2 5-5-1-3-4 2-10 3-3 4-1v-5l-3-3-7-2-2-1h-9l-2-3-4-2-1-5-5 1-3 5-4-1-4-5-3 1-1 2h-2l1-4 1-3-1-4 3-1-5-3h-7l-3 1v8l-3 4-3-1v-2l-12-2-9-1-13 5-11-6-11-2v-3l-15 1h-12l-5-2-3-2-1 2-10-5-9-1-12-5v-2l3-1 16 4h12l-17-2-14-3-2-4-4 1-1 1-12-1-20-4-3-6 1-10 20 4 12 5 6 2 5-3h14l4 2 36 3 4 1h24l3-1v3h9l-1-6-3-3-6-1-2-5 4-1 10 1 2 1h11l-2-10-4-1 1 5-8 3-21 1-16-3-5-2-4 1h-11l-10-4h-8l-7 1v-2l-42-3-6-2v-3h24l23 1h4l-2-7 9 3 1 3 8 1 6-1h28l3 1-3-4-18-3-26-1-8-1v-4l16 2 4-1v-12l-8-4 1-9 1-1h8l8 2 3 3 7 1 3 3v2l6 1-1 3h-2l-1 3-11-1-3-1v3l6-1 4 2 2 4 8 3 3 3 3 1-1-5 10 1 5 3 1 6-1 1-13 1v5l1 3h2v-5l1-1h20l4-1-4-13-3-3-7 1h-12v-3l-1-4-2 1-3-2v-3l5-1 2-1v-7l-4-4-5-2v-4l4-1-3-5-10-3-3 1-7-3v-3l-5-1 1-3 6-2-6-1-2 1-1 3h-6l-4-2 3-1v-2l-5 1-5-3-9-2-2-1 1-5 4-1 14 2h8l6 2v2l19-4 3 2 16 1 3-4 5 1 2 4h8l2 1h11l4-2h19l10 1 4-2h9l2 1 1-3 13-2 1-2-6-2-1-4 1-5-2-4-13-7-5-3-8-4-9 1-11-3-9-1-14-4-8-6v-2l11-4 4-1 4 1 9-5 12-1 9 1 7 1 11 3 17 2h7l3-3 10-2 4-2 4-5h36l15 1h76l22 2 5 1h50l20 2 25-1 23-2 5-1 34-2 4-1 10 1 9-2 16-3 3-2 11 1h18l1 1 41 4h15l9-2 8-3 1-2 14-6-4-1h-14l-3-1h-34l-2-2-19 2-11-1-9 1-18-1-3-3 2-1h11l-1-2-3-1v-3l9-1 17 1 11-3h39zm63 30-10 4 1 8 5 1 8-5 2-3 3-1-2-4zm18 3-2 4 3 5h4l1-7-1-2zm-707 74m-19 62v2h2v-2zm783 0-1 2h2l1 2v-2l2 2 3 2 6 3h2l-1-5-7-4zm-4 2-1 2h4v-2zm-5 1 1 4 2 4-3 1v2l-4 2-1 3 2 5 1 7 3 3 9 2 5-1v-4l-1-3 4 1-3-4-1-9 6-1 2-3-8-5-8-1 1 3-3-3-1-3zm-679 16m722 5 1 2zm-737 1-1 9 5 1v-5l2 1 2 6 5 2h7l2-5 21 1v-3l-16-3-21-4-1 4h-2l-2-4zm-34 23v3h6v-2zm0 4m31 0m-66 1m77 0-1 3 4 2 1-2-2-3zm50 5v4l4 2 3-2v-2l-4-2zm-34 8m52 4-4 5 3 2 5-4-1-3zm5 7m22 8-9 5-8 6v2l4 1v-3h5l7 6 5 1 1-3v-9l-2-6zm6 3 3 7-1 3h3l-1-8zm-26 10m-225 25 3 3-1-3zm21 5 1 2 1-2zm-4 1m66 0m-69 0-3 2h4zm56 2-9 1v2l10 2 17-1-1-4zm-94 3m1 1m3 2 1 2zm116 1v2l5 2v-2zm-115 1m111 1-1 2h3v-2zm-28 1v2l9 1 5 3h5l1-2-9-2-3-2zm126 4-4 2 4 2 2-4zm-235 2-2 4 5 3 4-2-2-4zm-49 1m170 5v3zm-6 6m6-1-2 2h2l1 2v-4zm-52 3-5 3 2 4 5 3 5-1 3-3v-5zm74 16 1 3 13 4 3-2-11-3zm-5 8-3 2 2 4 5 3 6 2v3h-6l-2 1 2 4 4 2 20 3 9 3 4 3 8 2 20 1h15l7-1 2-5 12-1 5 1 2 3 3-2 7-2 1-4-7-2-13-2-19-2-6-2-17-1-29-8-23-5zm816 0-4 3v2l-5-4h-2v2l2 1 1 7h-10l-2 2 2 1h17v-3-3l2 1 2 4 4 1h9l1-4-3-8-4-2zm-19 1-3 2-12 1 1 3 8 1 8-5 3-2zm14 1m-958 3v3h2l-1-3zm79 2m-64 1 1 2 3-1zm19-1-9 1 3 2 7 1 5-1-1-3zm46 1m902 5-1 8 5 5 3 1-1-5-3-9zm-994 3v1h6v-1zm19 0 2 1 1 2 3-2zm-13 1 2 1-1 4h2l1-4zm1e3 1v3l6 2-1 10-1 3h-2l-1 2v15h4l4-5 5-5v-12l-4-8-6-5zm-989 1-1 2h3v-2zm-10 5m24 1v3h2l-1-3zm-27 2m265 3m-208 2 3 2 10 1-1-2-3-1zm206 3m-292 6m-1 3m1e3 24-1 5 1 2 4-1 2-4-2-2zm-859 8m-23 21v2l3-1zm811 8-1 2 2 2v-4zm4 6m16 50m-32 10 2 9 4 1 2-4v-4l-4-2z" fill="#E9BB36"/>
<path transform="translate(299,768)" d="m0 0 2 2 2 7 5 2 10 1-1-10h10l16 2-1 4-9 2h-8v3l6 1 10 4 7 1h8l10-4 1-2-1-5 3-1 18 2 10 4h6l6 3 1-5h6l2 7 6 2 10 1 11-3 2-7 27-2h44l33 1 35 3 17 1 13 3 15 2v1h-12l4 6v2l4 1v2l-5 1 3 4h16l35 2h59l6-3 20 1 2 1 113 7 25 2 15 3 13 1 21 3 13 1 15 3 13 2 2 1 1 6-8 1 16 6 19 3 16 2 11 2 5 3-2 2 1 1 12 2 9 2 10 2v6l8 2-4 1-5 1 13 3v2l8 2 10 2v3l-24 2-2 1-13-1-27-3-14-2-9-1-4-2-26 2-2 1-40 1-19 1-11 3v2l17 1 6 2 1 5 3-1v2h-2l1 2 7 3 3-1v-5l-3-1 2-1 9 2 6 3-1 5-3 2 1 4 14 3 9 2 7 1 9 1 12 6h3l1-4h25l8-1h14l16 2 2 3 3-1h15l14 2 21 4 11 2 1 2h21l21 4v2l8-1 6-3h6l2 1v11l4 5-5 1-5-2-6-3h-6l-6 2h-4v2l-7 5-10 2h-11l-37-3-5-3-2-1h-13l7 2 13 3 9 1 4 2-2 2h-9l-7-2 2 6 4 2v2l-8 3h-13l-9-3-7-4v-2l4-2h3v-2l-8-2-12 1 5 5v2l-6 2 4 4 8 4 2 4 16 2 19 4 13 5 2 1v2h-21l-19-2-9 1h-12l-21-1-3-1h-21l-2 1h-10l-17-1-24 3-1 7 9 3 16 4 24 3 19 2 8 3-1 4-12 2h-49l-13-2h-9l-16 3-9 2-15 1h-130l-1-1-73-2-44 1-25 2-67 3h-19l-27-1h-36l-19 3-1 1 7 1 50 2 32 1-2 4-7 1-75 2h-24l-23-2-31-1-14-4-6-5-3-7 1-6 8-5 5-1-7-2-1-1h-5l-3 3-5-2-1-5 8-5 13-3 5-3 12-2v-2l-2-1v-2h2l-3-5-3-1-16 1-7 1h-41l-2 4h-7l-12-2 2-4h2l2-4 1-6-3-5-24-4-1-2 8-4v-10l-18-12-10-3-9-2h-8l-4-1h-13l-4 2-14-3-11 1 5-5 1-3-4-5-5-3v-5l14 1 8 4 5 3 10 1h3l2-4 5-5-2-3-7-2-14-2-4-2 1-7 3-3 12 1 4-3 1-12-9-4-6-4-14-5-1-3 5-9h-10l-7 1-11-2-9-2-10-1-4-3-8-3-6-4 1-8 5-2 6 2 51 1-1 10 10 4 2-6 4-4-2-6 10-2 1-7-1-13 7-2 3-2 1-17 5-10 3 1 6 8 3 1 5-5zm-20 43 1 5h3l-3-5zm-29 29m2 1m3 1 4 2 9 4 8 4 8 1 5-1 19-1 7-2-1-3-11-2h-18l-18-1zm782 9m4 1v1h5v-1zm46 70m-1 1m-2 1-1 2 3-1zm-779 5v3l8 3h10l5-3v-3zm734 0-9 3v2l10 2h9l8-1v-2l-10-2zm-689 4-7 5-1 8 4 3h8l8-5 1-7-3-3-2-1zm726 0-9 3v3l6 3 30 3 17 1 6 1 22-5v-2l23-1v-2h-25l-23-2-35-2zm-12 1m-28 5v2l12 6 6 7 4 3 5-1 1-1 7-1-2-1-1-3-11-2-3-1 2-6-5-2zm163 1v2l3-1zm4 1 2 2v-2zm-43 3 1 2 18 2-1-2-16-2zm21 3v1l7 1v-2zm-109 7m-646 64-4 3v3h14l4-2-5-4zm-13 2v3h2v-3z" fill="#AB0F08"/>
<path transform="translate(1490,785)" d="m0 0h4l-1 4-1 5 3 5 10 9 7 6 9 20 1 6v21l-3 5-6 3-9 3-13 8-5 1-4-3 1-4 5-4 8-7v-2l-2-1h-12l-5 2h-15l-12-4-11-1-1 3h-2v2h3l1 7-4 4h-2l-2 4-13 4-10 1-1 6-3 2-11 1-11-1-5 1-6-3-10-2-7-3-6-1-2-2-2 9-3 6-4 1v-5l-4-2-12-2-5 1-8-2h-6l-6-2-15-3-6-2h-29l-2 1-26-2h-16l-28-1h-21l-17-1-7-1v-2l6-1h16l-1-6-21-4-8-1-42-1-8-2v-2l-7-1-12-2 2-2 9 1 4 1 3-1 2 1-1-3 7-1 30 4 2 1 32 2h17l6-5v-3l-11-5-15-5-5-1-14-1-6-1-1 1h-10l-10-2v-2l16-1 6 1 9-1 17 1 15 4 9 5 8 9-1 5-3 3h-2l1 6 5 2 2 4 57 2h27l29 2 23 5 21 2 8 1 8-9h6l5 4 12 3 25-1 18-3 3-1v-2l3-1 9-15 3-3 14-3h12l8 1 14 1 18 4h8l5-1 2-11-2-5-1-10-5-13-3-5-3-2v-2l-4-2-7-7-4-6-1-4 2-3z" fill="#093487"/>
<path transform="translate(653,686)" d="m0 0h42l1 4 1-4 5 1h21l12 1h60l12 2 3 2h-19l-5 1-85 1-1 1h-17l-4-1-17 1-4 1h-42v2h7v1h-107l-4-1-2-6-12-1h-32l-12 1h-71v-2l20-2h104z" fill="#083487"/>
<path transform="translate(481,616)" d="m0 0h26l2 1v2l6 2 1 3h-3l-1 2v-2l-10 3-15 1-9 4-6 2-17 2-3 1-34 2h-8v2l-2 1-1 4h29l42 1 9 4 16 3 14 2 9 3 48 2h59l4 1h9l3 1 18 1 5 1v1h-39l-99-1-32-2-7-3-7-2-39-5-18-1h-10l-16 2h-9l-5-3-3-3 1-6-2-2 1-4 9-4 4-1 13-1 2-1 28-1 31-3 6-2 7-1-8-2-1-3z" fill="#093487"/>
<path transform="translate(248,722)" d="m0 0 9 1v3l-15 3v2l-9 5-7 4-6-1-2 7-2 5 27 4 37 3 14 2 39 2 2 2 9 2h11l20 3 14 1 15 2 53 1 6 1 29 1 51-1h8l8 2 23-1 14 2 10 1 4 1h5v2l4-1 14 3 10 2 6 2 4 2-7 2h-5l-3-2h-14v-2l-16-3-5-1-43-3-9-1-33-1h-78l-39-1-32-3-16-2-8-2-22-1-33-3-3-1-57-6-35-5v-4l9-5 2-4-3-2v-2l2-1h10l9-3 8-5 10-5z" fill="#0A3588"/>
<path transform="translate(1570,749)" d="m0 0h31l11 4 6 4 3 3 4 9-1 7-5 6-9 2-6 3h-3l3 5 7 10 1 19 10 1 4 4 1 4-2 2-4 1h-9l-6-2-3-9-2-1-1 3-5 1-5-3-1-2v-9l-3-3-19-9-15-4h-13l-3-2-29-6-4-3 5-1 7 1 10 1 14 3 15 2 11 5 12 3 5 2 12 2-1-7 6-12 6-1v-2h2l2-6 1-1 1-7-1-3-4-2v-2l-6-1-4-3-9-1-14-2-3-1z" fill="#083386"/>
<path transform="translate(397,544)" d="m0 0h12 3 13l3 1h6l13 5 16 1h14l4 2h11l5 2 14 1 2 1v3l3-1 3 1v2l-6 2-4 4-10 2-2-1h-16l-2-1v-2l-4 2h-12l-4-2-2-2-1 3h-11l-7-3-2-4-4 4h-11v-4l7-1 2-1-3-2-4 1-5 2h-10l-2 1-4-4v-2l7 1-9-3-2-4-3-1z" fill="#E0B03A"/>
<path transform="translate(1140,927)" d="m0 0h10l3 1 1 2h21l21 4v2l8-1 6-3h6l2 1v11l4 5-5 1-5-2-6-3h-6l-6 2h-4v2l-7 5-10 2h-11l-37-3-4-2 1-3 7-3 16-3h3v-2l2-1 20-1 1-1-25 1-10-1 1-7zm59 13v2l3-1zm4 1 2 2v-2zm-43 3 1 2 18 2-1-2-16-2zm21 3v1l7 1v-2z" fill="#5D2931"/>
<path transform="translate(1310,600)" d="m0 0 17 1 4 1 23 1 10 1 2 5 30 1 6 2 2 2-5 1v2l-6 3-17 1-7-1-88 2h-18v-1h8v-3l4-4 1-2h2v2l8-1 1-4h24l5-1 11 1 34 1-16-1h-11l-14-2-9-3zm-20 12v1h22v-1z" fill="#0841A2"/>
<path transform="translate(777,806)" d="m0 0h26l34 2h26l7-1h13l18 3 8 2 12 2 13 2h15l20 3 26 3 20 4 7 2 13 2 13 1 9 2 5 4 4 2 21 1 6 1v4h-2l-1 3-2 1-12-1-9-3h-24l-12-4-14-7-2 1h-6l-1-3 1-2-17-4-1 2-17-3-11-2-30-3-4-1-13-1-15-3-55-4-69-4z" fill="#093386"/>
<path transform="translate(1057,933)" d="m0 0h8l4 3h-2v3l6 2 30 3 17 1 4 3-4 2-2-1h-13l7 2 13 3 9 1 4 2-2 2h-9l-7-2 2 6 4 2v2l-8 3h-13l-9-3-7-4v-2l4-2h3v-2l-8-2-12 1 5 5v2l-3 1-5-6-9-3v-1l5-1-1-2-11-2-3-2 1-6-15-3v-3h17z" fill="#AE2410"/>
<path transform="translate(589,548)" d="m0 0h2v8l1 9 17-1v1l21 1h38l1 1 20 1 9 1 1 5h-28v-2l-4-1v2l-9 2-12-1-5 1-2-2h-81l-1-3-4-3 4-3 4-2 5-1 6 1v-2l-3-1 2-5 5 3 6 1-1 5 6 1-1-14zm-1 2 1 3z" fill="#0F398A"/>
<path transform="translate(809,565)" d="m0 0h17l4 1h11l4 2 10 1-3 3-19 1 3 1h17l10 2v1l-20 2h-44v-2l-16 2-13 1-5-4h-21l-10-1-2-2 8-2h27l2-1h11l18-1 2-2z" fill="#0A378B"/>
<path transform="translate(688,236)" d="m0 0h8l8 2 3 3 7 1 3 3v2l6 1-1 3h-2l-1 3-11-1-3-1v3l6-1 4 2 2 4 8 3 3 3 3 1-1-5 10 1 5 3 1 6-1 1-16 1-3-4-18-3-26-1-8-1v-4l16 2 4-1v-12l-8-4 1-9z" fill="#E1B23A"/>
<path transform="translate(1508,666)" d="m0 0 7 1 9 6 8 5 11 6 12 11 5 10 1 7-1 3-8 4-8 3-11 7-8 2h-11l-9-1-1 3 2 7 8 5 8 4 8 3v1h-7l-11-3-8-7-4-9-2-4h2v-2l-2-1 6-1 10 1 17-6 4-4 7-4 5-4 3-2-2-4-2-5-7-3-5-6v-3l-3-1-5-5-8-4-1-5-5-2z" fill="#083487"/>
<path transform="translate(405,592)" d="m0 0 21 3 3-1v-2l5 2v1l25 2 6 3 15 3-1-4 3-1 15-1h43l-1 2-22 1-1 4-5 3 1 8-1-2-5-1-10-5-15-4-1 5-25-1-36-5-12-5z" fill="#0C3688"/>
<path transform="translate(1217,917)" d="m0 0 5 1 10 6 6-1 3-2h5l2 4h30l7 2h18l9 1 1 1-1 7h-25l1 4h-2l-1 6-2-1v-5l-1-1-9-1-2-2 8-1 2 1v-2l-23-2-9-2-14-1h-19l-8-2 1-3 6-4z" fill="#50273D"/>
<path transform="translate(688,794)" d="m0 0 27 2 5 1 22 1h8l12 1 10 5 5 1v1h-14l-2-1-20-1-6 3h-59v-1l12-1 1-5z" fill="#0C3282"/>
<path transform="translate(436,481)" d="m0 0h14l18 3 27 5 13 2 8 6 1-1h9l11-1-2 2-8 1-4 6v-3l-9-1-2 3-12-2-5-4-6-3-10 1-18-2-4-3h-7l-5-4-1 1-9-1-1-4z" fill="#E6B83F"/>
<path transform="translate(397,544)" d="m0 0h12 3 13l3 1h6l13 5 2 2-4 1 4 2-2 4-5 4 1-4-4-1v5l-2-1-1-2-4 4h-11v-4l7-1 2-1-3-2-4 1-5 2h-10l-2 1-4-4v-2l7 1-9-3-2-4-3-1z" fill="#CC9D37"/>
<path transform="translate(488,521)" d="m0 0 9 2 10 2h5l2 4 3-3h11l5 3 15 2 4 2v2l4 2-3 1v4l-10-1-4 1-4-6-18-2-5-2-5 2h-6l-4-2-7 1-11-2-6-1-1-3h3l-1-5 10 1 3 2z" fill="#D8AC3B"/>
<path transform="translate(529,774)" d="m0 0h22l8 2 23-1 14 2 10 1 4 1h5v2l4-1 14 3 10 2 6 2 4 2-7 2h-5l-3-2h-14v-2l-16-3-5-1-43-3-9-1-60-2 1-2z" fill="#0C3483"/>
<path transform="translate(1505,653)" d="m0 0 12 2 4 2v2l-11 3h-6v2l-5-1-1-1-22-1h-13l-8 1h-2l-10 3-9 4-5 2h-19v-2l14-1 14-3-6-2v-2l18-2 14-3 11-2z" fill="#0A3588"/>
<path transform="translate(616,290)" d="m0 0 20 4 12 5 5 2 2 3v5l-4 1-1 1-12-1-20-4-3-6z" fill="#DEAF37"/>
<path transform="translate(420,444)" d="m0 0h5l4 1 6 1 17 4 29 3 13 4-2 4-5-2-2 2h-8l-17-2-12-1-1-5-3 1-4 4-10-1v-3h2v-2h-2v-5l-10 2-6 3h-2l1-3 5-3z" fill="#DFB851"/>
<path transform="translate(1076,849)" d="m0 0 26 3 9 2 18 2 3 2-1 3-51-1-8-2v-2l-7-1-12-2 2-2 9 1 4 1 3-1 2 1-1-3z" fill="#4F233B"/>
<path transform="translate(497,597)" d="m0 0h43l-1 2-22 1-1 4-5 3 1 8-1-2-5-1-10-5-15-4-2-4 3-1z" fill="#073386"/>
<path transform="translate(403,688)" d="m0 0h126v1l-18 1v3l-1-1-12-1h-32l-12 1h-71v-2z" fill="#07348A"/>
<path transform="translate(1615,415)" d="m0 0 10 1 6 3 4 11-1 4-5 1-10-4h-2v2l-3-1-3-7-2-1v-5l3-3z" fill="#EBC041"/>
<path transform="translate(134,514)" d="m0 0h20l23 4 17 4 2 2-1 4-14-3-21-3-3-1h-13l-13-3 1-3z" fill="#E1B945"/>
<path transform="translate(667,566)" d="m0 0 2 1 20 1 9 1 1 5h-28v-2l-4-1v2l-9 2-13-1-1-4h4l-10-2v-1z" fill="#073E9D"/>
<path transform="translate(1365,611)" d="m0 0h36l3 3-5 1v2l-6 3-17 1-10-2-6-3 2-3z" fill="#093386"/>
<path transform="translate(1427,890)" d="m0 0h15l11 1 6 3-1 5-7 3-9 1-7-1-1-3-12-5 1-3z" fill="#602B2E"/>
<path transform="translate(488,521)" d="m0 0 9 2 10 2h5l1 1v5l-2 2-10 1-4-2-7 1-11-2-6-1-1-3h3l-1-5 10 1 3 2z" fill="#D6AB44"/>
<path transform="translate(93,646)" d="m0 0 13 2 31 5 1 1v5l-1 1-13-1-28-4z" fill="#083589"/>
<path transform="translate(1363,634)" d="m0 0h9l20 3 18 6h10l6 2-1 2h-15l-5-2-7 1-5-2-2-2-11-1h-4l-4-2h-15l-7-2v-2z" fill="#0B398F"/>
<path transform="translate(290,509)" d="m0 0h10l8 8 2 5 10 2 8 2 3 2v2l-7-1-5-1-9-1-4-2-15-3-2-3v-8z" fill="#E6B93C"/>
<path transform="translate(99,370)" d="m0 0 45 3 23 6 2 1v3h-10l-14-1-7-3-3-4-4 1-35-2v-3z" fill="#ECC452"/>
<path transform="translate(320,705)" d="m0 0h26v1l-12 1-8 1-5 1-18 1-16 4-9 1-9 6-6 1v2h-2l-4-6 1-2 12-4 34-5z" fill="#0A368A"/>
<path transform="translate(1310,600)" d="m0 0 17 1 4 1 23 1 10 1 1 3h-3v2h-28l-14-2-9-3z" fill="#1D4293"/>
<path transform="translate(1107,952)" d="m0 0h11l7 2 9 1 4 2-2 2h-9l-7-2 2 6 4 2v2l-5 2h-13l-1-5v-8l-1-2z" fill="#5B232C"/>
<path transform="translate(1150,864)" d="m0 0 12 1 6 2v3l7 4 4 2-4 1h-21l-17-1-7-1v-2l6-1h16z" fill="#542538"/>
<path transform="translate(1099,948)" d="m0 0h6l1 2 6 1v1h-5l1 4v13h10v1h-13l-9-3-7-4v-2l4-2h3v-2l-2-1h2l-2-5-1-2z" fill="#B52B0F"/>
<path transform="translate(431,545)" d="m0 0 5 1 11 4 2 2-4 1 4 2-2 4-5 4 1-4-4-1v5l-2-1-1-2-4 4h-11v-4l7-1 2-1-3-3h2v-6z" fill="#E3B841"/>
<path transform="translate(378,694)" d="m0 0h43l26 1-1 3h-45l-21 2-16 3-2-1 8-7z" fill="#0E3889"/>
<path transform="translate(1370,648)" d="m0 0 5 1 2 7 7 2 5 3 1 6h-4v-2l-11-2-7-4-13-1 2-5 7-4z" fill="#083387"/>
<path transform="translate(826,810)" d="m0 0h20l55 4 15 3 13 1 21 3 13 1 15 3 13 2 2 2-5 1-25-5-49-6-18-3-70-5z" fill="#531B2B"/>
<path transform="translate(805,573)" d="m0 0h28l3 1h17l10 2v1l-20 2h-44v-3l3 1 23-1h-14l-9-1z" fill="#0F47A5"/>
<path transform="translate(386,538)" d="m0 0h5l2 4v6l-10 1v2h-2l-2 6h-3l-1-3-4-2-3-2v-5l10-3 5-1z" fill="#825D43"/>
<path transform="translate(1058,835)" d="m0 0 8 4 21 1 6 1v4h-2l-1 3-2 1-12-1-9-3-8-1 3-1-1-2-5-1 1-4z" fill="#0A378B"/>
<path transform="translate(576,665)" d="m0 0h100l4 3-1 6 3 4 6 2v1h-12l-4-2-1-6 1-6h-59l-37-1z" fill="#0C3E97"/>
<path transform="translate(449,550)" d="m0 0 12 1-1 5-2 1v7l-2 3h-11l-7-3 1-6 5 1v2l5-6-4-1-1-2h5z" fill="#E4B43F"/>
<path transform="translate(1107,981)" d="m0 0h9l17 5 6 3v2h-21l-15-2-1-2 4-2z" fill="#632C2C"/>
<path transform="translate(572,365)" d="m0 0 4 1-2 4 9 2h3l5 3 3 4 9 3 1 4-19-2-4-2-2-4 4-1-6-1-5-5-2-1 1-4z" fill="#AF8845"/>
<path transform="translate(420,444)" d="m0 0h5l4 1 6 1 12 3v3l-7 6-10-1v-3h2v-2h-2v-5l-10 2-6 3h-2l1-3 5-3z" fill="#D09B38"/>
<path transform="translate(196,517)" d="m0 0h6l3 2v4l3-3h4l1 3h9l1 1v5l-8-1-3 3-4-1-3-2-6-2-3-6z" fill="#BB9748"/>
<path transform="translate(1236,888)" d="m0 0h26l2 1h8l2 6h-4l-3-3 1 3-9 1-11-1-2-4-6 2-2-2h-4v-2zm20 1v3h4v-2z" fill="#1B4DA4"/>
<path transform="translate(465,405)" d="m0 0 3 1v4l12 1 6 3-1 3-4-1-1 1-15 1-13-3v-2l7-2h6z" fill="#BD9447"/>
<path transform="translate(730,262)" d="m0 0 10 1 5 3 1 6-1 1-16 1-4-6 2-2 4 1z" fill="#E2B744"/>
<path transform="translate(1581,406)" d="m0 0h6l5 5 4 7v3l-5-1-11-4-3-3 2-6z" fill="#E6BB46"/>
<path transform="translate(667,566)" d="m0 0 2 1 20 1 9 1 1 5h-28v-2l-4-2 1-1-2-2z" fill="#154BA6"/>
<path transform="translate(108,940)" d="m0 0 22 2 2 2-1 2h-2l-2 4-12-2-9-4-1-3z" fill="#AF2210"/>
<path transform="translate(1076,849)" d="m0 0 26 3v1l-7 2-4 2-9-1-5-4-3-1-1 5h-6l-2-1-12-2 2-2 9 1 4 1 3-1 2 1-1-3z" fill="#0D378A"/>
<path transform="translate(657,416)" d="m0 0h14v4h-3l1 3 2 2 1 5-2 4-1-4-5-2-2-6-7-1-1 2v-3z" fill="#DFB440"/>
<path transform="translate(544,468)" d="m0 0 11 3 3 3-1 4 2 3-1 3h-3l1-3-18-6 2-4 4-1zm5 5v1h6v-1z" fill="#E1BA4D"/>
<path transform="translate(755,551)" d="m0 0 4 2 4 5 3 8-1 3-3-6-5-2-2-1h-13l-7-2v-2h9v-2l10 2 1-1z" fill="#DCB554"/>
<path transform="translate(1597,603)" d="m0 0h2l1 9-1 9-3 1-6-5-2-4 1-4 7-4z" fill="#0C388C"/>
<path transform="translate(740,571)" d="m0 0h25v5h-21l-10-1-2-2z" fill="#073489"/>
<path transform="translate(430,512)" d="m0 0 7 1 3 2v-2h8l3 3-4 3-3 1-2 5h-3l-4-7-6-4z" fill="#DAAF42"/>
<path transform="translate(1452,615)" d="m0 0 4 1 2 5-2 10-2 2v-3l-9-1 1-4h2l1-7h2z" fill="#C59639"/>
<path transform="translate(99,370)" d="m0 0 27 2 13 1-2 1-1 2h-2l-38-2v-3z" fill="#FAF9F5"/>
<path transform="translate(1443,660)" d="m0 0h6l-4 4-8 4-8 3h-19v-2l14-1 14-3-6-2v-2z" fill="#0C388C"/>
<path transform="translate(1312,608)" d="m0 0 26 2 3 2-2 1-47-1 1-2 18-1z" fill="#0F3B8D"/>
<path transform="translate(1310,600)" d="m0 0 17 1 4 1 13 1-2 3h-21l-10-2z" fill="#DCB43B"/>
<path transform="translate(439,548)" d="m0 0 6 1 4 3-4 1 4 2-2 4-5 4 1-4-4-1v5l-2-1-2-6 3-7z" fill="#C0903A"/>
<path transform="translate(442,688)" d="m0 0h87v1l-18 1v3l-1-1-12-1h-40v-1l-16-1z" fill="#0C46A6"/>
<path transform="translate(522,438)" d="m0 0 9 1 4 1 1 2h3v4l-4 1-2-2v2l-11-2-3-1 1-4z" fill="#D8AE41"/>
<path transform="translate(181,892)" d="m0 0h12l1 4-13 3h-8l-3-1 1-3z" fill="#B93717"/>
<path transform="translate(334,529)" d="m0 0h10l10 3 5 3-1 3-20-4-4-3z" fill="#B37C30"/>
<path transform="translate(512,460)" d="m0 0 5 2-1 5-6-1-1 1h-8l-1 3h-7v-4l6 1v-2l-5-1 4-1 3 1 1-1h6l1-2z" fill="#DEBD6B"/>
<path transform="translate(1282,946)" d="m0 0 3 1-2 5-5 2-1 2-2-1 1-2-14-1-5-2v-2h20z" fill="#54425E"/>
<path transform="translate(474,522)" d="m0 0 8 1 6 6 4 1 1 2-3 1-11-2-6-1-1-3h3z" fill="#E7BB41"/>
<path transform="translate(587,377)" d="m0 0 5 2v2h10l2 5-19-2-4-2-2-4z" fill="#D5AD4C"/>
<path transform="translate(1235,604)" d="m0 0h22v3l-5 1-3 1v-2l-16 1h-8l-8 1v-3l17-1z" fill="#687AAC"/>
<path transform="translate(230,524)" d="m0 0 14 1 2 2-1 5h-9l-6-4z" fill="#D7AF4B"/>
<path transform="translate(1145,965)" d="m0 0h7v2l5 1 5 5v2h-2v2l-4 1-6-7-5-4z" fill="#462442"/>
<path transform="translate(637,390)" d="m0 0 14 3 3 6-5 2h-5l-5-5z" fill="#E9BE42"/>
<path transform="translate(616,696)" d="m0 0h10l1 1 9 1h21l4 2-3 1h-20l-15-1v-2h-7z" fill="#1B4492"/>
<path transform="translate(847,381)" d="m0 0 10 3 4 2v2l-12 2-7-3v-4z" fill="#E3BA43"/>
<path transform="translate(521,559)" d="m0 0h9l2 1v4h-2l1 6-4 1-5-2 1-2h2l-4-4z" fill="#C49F43"/>
<path transform="translate(1596,966)" d="m0 0 4 2-1 5-15-2-5-2v-2z" fill="#E4BB4E"/>
<path transform="translate(1504,738)" d="m0 0 4 4 14 7 8 3v1h-7l-11-3-8-7-1-3z" fill="#0C388B"/>
<path transform="translate(659,314)" d="m0 0 22 5-1 2h-2v2l-9-1-12-5v-2z" fill="#E7C152"/>
<path transform="translate(1276,612)" d="m0 0h2v2l6 1-3 7h-18v-1h8v-3l4-4z" fill="#0D3788"/>
<path transform="translate(681,319)" d="m0 0h11l1 3-1 5-3-1-1 2-9-4 1-4z" fill="#CDA03D"/>
<path transform="translate(554,566)" d="m0 0h8l-3 1v3l2-2 15 3 11 1v1h-29l-1-3-4-3z" fill="#184FAB"/>
<path transform="translate(741,357)" d="m0 0h4l5 1-1 4-6 4-1-1-2 6h-3v-6l3-7z" fill="#C5A24B"/>
<path transform="translate(459,411)" d="m0 0h6l8 5-4 2-7-1-10-2v-2z" fill="#EABF4B"/>
<path transform="translate(496,406)" d="m0 0h7l8 3-1 3-9 3-4-2-2-6zm2 2-1 2h3v-2z" fill="#D3AB42"/>
<path transform="translate(610,392)" d="m0 0h7l4 4v5l-2-1-2 3-4-1-4-5zm5 3 3 3-1-3z" fill="#D1A53B"/>
<path transform="translate(616,290)" d="m0 0 20 4 2 2h-9l-9-2 1 3-3 5-2 1-1-8z" fill="#E8C35E"/>
<path transform="translate(955,892)" d="m0 0 11 2 6 3-1 5-3 2v3h-3l-1-3 3-3v-3l-8 1-1-5-3-1z" fill="#83492C"/>
<path transform="translate(618,801)" d="m0 0 4 1 3 2h16l1 2-3 1h-21l-3-4z" fill="#4E2945"/>
<path transform="translate(1254,888)" d="m0 0h8l2 1h8l2 6h-4l-3-3 1 3-5 1-4-3 1-3-3 1h-3z" fill="#596D95"/>
<path transform="translate(1014,832)" d="m0 0 13 1 10 4v2l-5-1 1 3-9-3-10-5z" fill="#0741A2"/>
<path transform="translate(1103,831)" d="m0 0h10l4 3-3 2h-10l-10-2v-2z" fill="#06368D"/>
<path transform="translate(518,461)" d="m0 0 9 1 3 1-1 4-7 3-4-3z" fill="#EBC041"/>
<path transform="translate(1085,872)" d="m0 0 10 1v2l8 2 10 2v3h-14v-1h5v-2l-10-2-9-3z" fill="#E9B93B"/>
<path transform="translate(1271,585)" d="m0 0 4 1h31l17 1v1l-49 1-3-1z" fill="#EFF2F8"/>
<path transform="translate(312,523)" d="m0 0h6l10 3 3 2v2l-7-1-5-1-9-1z" fill="#E2B334"/>
<path transform="translate(521,475)" d="m0 0 13 2 3 2-1 3-1-1h-10l-6-2v-3z" fill="#DDB23A"/>
<path transform="translate(1041,571)" d="m0 0 12 1 20 3v4l-7-2-23-4z" fill="#093C96"/>
<path transform="translate(774,583)" d="m0 0h11l16 2-1 3-4 1v-2h-7l-3-1-13-1z" fill="#063790"/>
<path transform="translate(1321,638)" d="m0 0h5l-1 5-4 6-3 2-1-4 2-6z" fill="#07348A"/>
<path transform="translate(1119,954)" d="m0 0h12l7 2-2 3h-9l-7-2-1 2z" fill="#9D6B33"/>
<path transform="translate(1058,835)" d="m0 0 8 4 21 1-1 2h-15l-15-2 1-4z" fill="#0C44A4"/>
<path transform="translate(648,551)" d="m0 0h5l-1 10-2 1-3-3h-4l1-5 4-1zm-1 3v2l3-1z" fill="#D8B350"/>
<path transform="translate(842,370)" d="m0 0h3v2h2v7l-5 1-4-5 1-3h3z" fill="#BC9A49"/>
<path transform="translate(1275,935)" d="m0 0h11l2 2v3h-2l-1 6-2-1v-5l-1-1-9-1-2-2z" fill="#2554A5"/>
<path transform="translate(1136,872)" d="m0 0h11l5 4h-15l-7-1v-2z" fill="#5F536E"/>
<path transform="translate(643,320)" d="m0 0 2 1-2 5-4 13-2 7h-2l-1-4 5-12 3-9z" fill="#61505C"/>
<path transform="translate(291,532)" d="m0 0 17 1 2 5-4 1-6-3-9-2z" fill="#C19449"/>
<path transform="translate(1410,845)" d="m0 0h7l2 2-1 5-4 3-5-1 1-3 3 1-1-5z" fill="#073285"/>
<path transform="translate(673,559)" d="m0 0h8l7 3 1 3-7 1-5-2-1-2-3-1z" fill="#7A706D"/>
<path transform="translate(552,363)" d="m0 0h6l8 3-1 3-8 1-5-5z" fill="#B6955D"/>
<path transform="translate(620,294)" d="m0 0 9 1 11 1v2l-2 1h-11l-7-3z" fill="#601927"/>
<path transform="translate(1339,621)" d="m0 0 8 2 14-1v2l-5 2-5 1-10-3-2-1z" fill="#E2CD8C"/>
<path transform="translate(1479,617)" d="m0 0h2l1 9-1 7h-3l-1-4v-9z" fill="#D2B967"/>
<path transform="translate(407,507)" d="m0 0 4 2 1 5-1 3-4 1-2-5-2-2v-3z" fill="#BB9C59"/>
<path transform="translate(146,948)" d="m0 0h8l5 1 1 4-1 1-8-1-5-3z" fill="#8F4225"/>
<path transform="translate(674,261)" d="m0 0 16 2h5l-1 3h-12l-8-1z" fill="#DEBC5A"/>
<path transform="translate(1025,845)" d="m0 0h8l15 3 5 3-4 2-10-4-14-3z" fill="#502A41"/>
<path transform="translate(1413,643)" d="m0 0h7l6 2-1 2h-15l-2-1v-2z" fill="#06368D"/>
<path transform="translate(563,561)" d="m0 0h12l2 3-6-1v2l-8 1-6-1 2-3z" fill="#043EA1"/>
<path transform="translate(423,559)" d="m0 0h9l2 4-4 1h-9v-4z" fill="#C4963F"/>
<path transform="translate(724,466)" d="m0 0 9 1 2 1v2l-6 1h-7l-2-3z" fill="#EDC968"/>
<path transform="translate(517,394)" d="m0 0h2l3 6-1 5-4 2-3 1 1-5 1-1z" fill="#D1AE6F"/>
<path transform="translate(1040,935)" d="m0 0 13 1 5 5-15-2-4-2z" fill="#623233"/>
<path transform="translate(1571,893)" d="m0 0h27l1 2h-32z" fill="#BFB58A"/>
<path transform="translate(1310,600)" d="m0 0 17 1 4 1-1 2h-13l-3-1-1 2-3-2z" fill="#E9EDF2"/>
<path transform="translate(196,517)" d="m0 0h6l3 3h-2l-1 3 3 4h-5l-2-2-2-5z" fill="#C7A24D"/>
<path transform="translate(345,531)" d="m0 0 9 2 5 2-1 3-19-4v-1h5z" fill="#E4B638"/>
<path transform="translate(532,495)" d="m0 0h5l-2 2-8 1-4 6v-3l-6-2v-3h9z" fill="#B08C45"/>
<path transform="translate(454,432)" d="m0 0 8 1 5 2v2h-12l-4-2v-2z" fill="#D1A859"/>
<path transform="translate(1236,888)" d="m0 0h16l-1 3-7 1-4 1-2-2h-4v-2z" fill="#A7B2B7"/>
<path transform="translate(616,696)" d="m0 0h10l1 1 9 1 2 2h-15v-2h-7z" fill="#19499E"/>
<path transform="translate(571,554)" d="m0 0 5 3 6 1v2l-9 2-1-2-3-1z" fill="#95744B"/>
<path transform="translate(1153,967)" d="m0 0 4 1 5 5v2h-2v2l-4 1-1-2 2-2-3-3z" fill="#1A4591"/>
<path transform="translate(1340,604)" d="m0 0h4l1 3-4 1h-17l-5-2 3-1h18z" fill="#FAF5E6"/>
<path transform="translate(813,550)" d="m0 0h5l3 3-1 5-4-1-3-2z" fill="#E1BD50"/>
<path transform="translate(299,768)" d="m0 0 2 2 1 8h-7l1-5z" fill="#462D4F"/>
<path transform="translate(687,699)" d="m0 0h11v3l-3 1h-9z" fill="#073285"/>
<path transform="translate(1248,604)" d="m0 0h9v3l-5 1-3 1v-2h-8v-2z" fill="#4B3A62"/>
<path transform="translate(967,575)" d="m0 0h22l1 2-10 1-13-2z" fill="#0D398C"/>
<path transform="translate(529,560)" d="m0 0h3v4h-2l1 6-4 1-3-1v-2h3l-1-5h4z" fill="#624446"/>
<path transform="translate(674,795)" d="m0 0 9 1-3 4-8-1-1-3z" fill="#DFC87F"/>
<path transform="translate(1087,585)" d="m0 0h5l3 3-1 4-10-4z" fill="#517ABF"/>
<path transform="translate(1065,955)" d="m0 0h10l5 4 1 4-3 1-5-6-8-2z" fill="#67332F"/>
<path transform="translate(740,571)" d="m0 0h22v1l-21 1-1 2h-6l-2-2z" fill="#1046A2"/>
<path transform="translate(297,500)" d="m0 0 5 2 7 3v2h-8l-4-5z" fill="#BFA76D"/>
<path transform="translate(1646,437)" d="m0 0 5 1v5l-7-1-2-1v-2z" fill="#F6E6B8"/>
<path transform="translate(741,359)" d="m0 0 1 4h2l-1 3-1-1-2 6h-3v-6z" fill="#AE8854"/>
<path transform="translate(1459,274)" d="m0 0h5l1 2-1 3h-6l2 2-2 1-4-4 1-2h4z" fill="#E4C363"/>
<path transform="translate(238,525)" d="m0 0h6l2 2-1 5-6-2z" fill="#A57936"/>
<path transform="translate(966,895)" d="m0 0 6 2-1 5-3 2v3h-3l-1-3 3-3z" fill="#AA7734"/>
<path transform="translate(1070,580)" d="m0 0 4 1 4 2 1 5-9-3-1-3z" fill="#1A4493"/>
<path transform="translate(1074,576)" d="m0 0h11l4 2h-2v2l-14-1z" fill="#B6C7E3"/>
<path transform="translate(216,523)" d="m0 0h6l1 1v5l-7-1z" fill="#D6A733"/>
<path transform="translate(202,519)" d="m0 0 3 1 3 7 4 1 2-1-2 4-4-1-8-8h2z" fill="#543848"/>
<path transform="translate(675,379)" d="m0 0h2v9l-3 6h-1v-8z" fill="#CEB263"/>
<path transform="translate(143,376)" d="m0 0 7 2-1 4-8-1-1-4z" fill="#FBF6E8"/>
<path transform="translate(1412,180)" d="m0 0h5l-1 5-3 2h-5z" fill="#EFCE6D"/>
<path transform="translate(1596,966)" d="m0 0 4 2-1 5-5-1-2-2z" fill="#B79048"/>
<path transform="translate(1530,606)" d="m0 0 3 1-1 6-1 2-4-2 1-5z" fill="#EDC759"/>
<path transform="translate(589,548)" d="m0 0h2v13h-2l-2-4-1-7zm-1 2 1 3z" fill="#C8A54D"/>
<path transform="translate(1267,604)" d="m0 0 7 1 5 2-4 1h-10z" fill="#4662A1"/>
<path transform="translate(429,592)" d="m0 0 5 2v1l10 1v1l-13 1-4-1v-2l2-1z" fill="#3A68B2"/>
<path transform="translate(1055,851)" d="m0 0 9 1 4 1h3l-1 3-14-2-3-2z" fill="#5B6189"/>
<path transform="translate(629,804)" d="m0 0h12l1 2-3 1h-10z" fill="#3F2D57"/>
<path transform="translate(736,561)" d="m0 0 5 1 2 1v3l3 1v2h-5z" fill="#97ABC8"/>
<path transform="translate(293,851)" d="m0 0h16v1l-11 2-8-1z" fill="#3B254E"/>
<path transform="translate(1218,110)" d="m0 0h6l-3 3-5 2v2l-4-1 1-3h2v-2z" fill="#D1BF88"/>
<path transform="translate(512,558)" d="m0 0 1 2 3-1 3 1v2l-6 2-3 3-2-4h3z" fill="#A37D52"/>
<path transform="translate(321,525)" d="m0 0 7 1 3 2v2l-7-1-4-3z" fill="#D4B04D"/>
<path transform="translate(420,444)" d="m0 0 4 1h-2v3l-8 4h-2l1-3 5-3z" fill="#EED48F"/>
<path transform="translate(635,396)" d="m0 0 1 4-2 2-3 1-3-2 2-4z" fill="#6F342F"/>
<path transform="translate(326,705)" d="m0 0h20v1l-12 1-8 1-2-2z" fill="#083284"/>
<path transform="translate(1443,660)" d="m0 0h6l-3 2-11 2-3-1v-2z" fill="#0D419C"/>
<path transform="translate(1314,603)" d="m0 0h16l1 2-10 1-7-1z" fill="#0440A4"/>
<path transform="translate(495,457)" d="m0 0 9 1-2 4-7-1-1-3z" fill="#E6C45D"/>
<path transform="translate(610,392)" d="m0 0h7l4 4v5l-3-3-1-2-7-3z" fill="#4E1E35"/>
<path transform="translate(1091,951)" d="m0 0 5 1v4l-8-1-1-2z" fill="#662F2C"/>
<path transform="translate(1226,949)" d="m0 0 3 1v3l-2 1h-7l-1-2z" fill="#8796A1"/>
<path transform="translate(1275,935)" d="m0 0h7l1 2-1 2-9-1-2-2z" fill="#3661AA"/>
<path transform="translate(980,826)" d="m0 0h8l5 2-1 2-7-1-5-1z" fill="#501C2E"/>
<path transform="translate(588,559)" d="m0 0 1 2h3l-1 5-12-1v-1h8z" fill="#1D3D8B"/>
<path transform="translate(586,372)" d="m0 0 5 3 3 4 3 2h-5v-2l-5-2-2-4z" fill="#3D3B62"/>
<path transform="translate(799,689)" d="m0 0 8 1 3 2h-11l-8-1v-1z" fill="#06368D"/>
<path transform="translate(789,585)" d="m0 0h12l-1 3-4 1v-2h-7z" fill="#073286"/>
<path transform="translate(848,574)" d="m0 0 13 1 2 2-12 1 1-2h-4z" fill="#2559AF"/>
<path transform="translate(491,1030)" d="m0 0 16 1-4 2h-9z" fill="#622B2C"/>
<path transform="translate(1355,622)" d="m0 0h6v2l-5 2-5 1v-4z" fill="#FDFDFD"/>
<path transform="translate(1357,604)" d="m0 0h7l1 3h-11l-1-2z" fill="#FBF8EF"/>
<path transform="translate(1393,591)" d="m0 0h1l1 10h2v3l-5 1v-12z" fill="#32346C"/>
<path transform="translate(1473,591)" d="m0 0h3l1 5-5 3v-7z" fill="#ECC450"/>
<path transform="translate(683,560)" d="m0 0 5 2 1 3-7 1-2-1 1-3h2z" fill="#D6B461"/>
<path transform="translate(471,436)" d="m0 0h10l1 3h-10z" fill="#ECC450"/>
<path transform="translate(385,392)" d="m0 0 9 1-1 2-4 2-4-1z" fill="#DAC18A"/>
<path transform="translate(139,373)" d="m0 0h5l-1 4h-3l1 3-4-2v-4z" fill="#EDC95E"/>
<path transform="translate(155,949)" d="m0 0h4l1 4-1 1h-5v-4z" fill="#9D3C2D"/>
<path transform="translate(278,770)" d="m0 0 3 1 3 4-1 2-7-2z" fill="#602D30"/>
<path transform="translate(850,569)" d="m0 0h5l-3 3-19 1v-1l7-1h10z" fill="#275BB0"/>
<path transform="translate(664,559)" d="m0 0 2 2h7l-1 3h-9l-1-2z" fill="#C9A54A"/>
<path transform="translate(441,554)" d="m0 0 2 1v2l6-2-2 4-5 4 1-4-3-3z" fill="#661823"/>
<path transform="translate(374,537)" d="m0 0h10v3h-8l-2-1z" fill="#93774E"/>
<path transform="translate(513,420)" d="m0 0h8l-1 4h-6l-2-3z" fill="#E2C77B"/>
<path transform="translate(1216,944)" d="m0 0 3 1 3 4-5 1-4-2 2-1z" fill="#718597"/>
<path transform="translate(1116,945)" d="m0 0 6 1 2 2-4 2-2-1h-6v-1h5z" fill="#BE813B"/>
<path transform="translate(261,715)" d="m0 0h2v5h-2l-1 2-3-4 1-2z" fill="#0E45A3"/>
<path transform="translate(365,551)" d="m0 0h2l1 6-4 1-1-4z" fill="#BD9B52"/>
<path transform="translate(427,549)" d="m0 0h2l1 3-1 3-8 2 2-5 3 1z" fill="#611A2C"/>
<path transform="translate(433,449)" d="m0 0 2 4 1 4h-6v-3h2z" fill="#ECC34C"/>
<path transform="translate(495,436)" d="m0 0h2l-1 4h-3v2l-5-1v-2l3-1 2 1v-2z" fill="#D9B966"/>
<path transform="translate(625,293)" d="m0 0 11 1 2 2h-9l-4-1z" fill="#EBC144"/>
<path transform="translate(1332,897)" d="m0 0h3v2h-2v2h-8l-1-2z" fill="#2156AE"/>
<path transform="translate(162,676)" d="m0 0 4 1 1 3 6-1v2h-7l-4-2z" fill="#2156AE"/>
<path transform="translate(416,509)" d="m0 0 5 1-2 4-3 1-1-4z" fill="#EECB65"/>
<path transform="translate(732,355)" d="m0 0h3l1 6h-4l-1-5z" fill="#5C4A5E"/>
<path transform="translate(424,578)" d="m0 0 2 2 8 1-1 3-6-1-3-2z" fill="#5F525E"/>
<path transform="translate(720,346)" d="m0 0h6l1 4h-4l-4-3z" fill="#7E5D42"/>
<path transform="translate(425,571)" d="m0 0 4 1v4l-7-1v-2z" fill="#52465F"/>
<path transform="translate(736,291)" d="m0 0 4 1 3 7-4-2-3-3z" fill="#E7D08B"/>
<path transform="translate(1635,433)" d="m0 0 4 1 3 5-6-2z" fill="#EDC95D"/>
<path transform="translate(598,361)" d="m0 0h4v2l3 1v2l-4-1-3-2z" fill="#A18464"/>
<path transform="translate(1380,602)" d="m0 0h4v2l3-1v2l-7 1-1-2z" fill="#47406D"/>
<path transform="translate(396,555)" d="m0 0 4 1v3h-5l-1-3z" fill="#CFA744"/>
<path transform="translate(1175,906)" d="m0 0 5 1-4 3h-4l1-3z" fill="#493954"/>
<path transform="translate(613,463)" d="m0 0h3l-1 5h-3z" fill="#ECC34B"/>
<path transform="translate(252,534)" d="m0 0 3 1v4l-4-1z" fill="#BFC5C4"/>
<path transform="translate(571,377)" d="m0 0 6 1-1 3-6-2z" fill="#C4A156"/>
<path transform="translate(1208,113)" d="m0 0h4l-1 3-4 1-1-3z" fill="#E3CFA9"/>
<path transform="translate(1278,891)" d="m0 0 5 2-1 3-5-3z" fill="#2855A7"/>
<path transform="translate(546,406)" d="m0 0h2l1 4-2 3-2-5z" fill="#D5B660"/>
<path transform="translate(746,298)" d="m0 0 4 2v3l-4-1-1-3z" fill="#F1D480"/>
<path transform="translate(101,512)" d="m0 0 3 1-1 4-3-1z" fill="#FBF8EE"/>
<path transform="translate(545,363)" d="m0 0h5v3l-5-1z" fill="#D2CAA8"/>
<path transform="translate(731,197)" d="m0 0h4l-2 4-3-1z" fill="#FBF8EE"/>
<path transform="translate(1307,129)" d="m0 0h5v2l-5 1z" fill="#F7EAC3"/>
<path transform="translate(678,554)" d="m0 0 7 1-1 2-6-1z" fill="#7F8268"/>
<path transform="translate(113,513)" d="m0 0 3 1-1 3h-3z" fill="#E1D099"/>
<path transform="translate(470,521)" d="m0 0 3 1v4l-3-1z" fill="#98875F"/>
<path transform="translate(741,469)" d="m0 0h6l-1 3-5-2z" fill="#F8ECCB"/>
<path transform="translate(556,397)" d="m0 0h2l-1 7h-2z" fill="#EAD9B9"/>
<path transform="translate(582,365)" d="m0 0h4v3h-4z" fill="#C0A15D"/>
<path transform="translate(228,536)" d="m0 0h2l1 4h-3z" fill="#BCA34B"/>
<path transform="translate(502,439)" d="m0 0 4 1v2l-4-1z" fill="#F7E9C1"/>
<path transform="translate(563,408)" d="m0 0 3 1-1 4-2-1z" fill="#C5C3AF"/>
<path transform="translate(418,980)" d="m0 0h3l-1 4z" fill="#425E94"/>
<path transform="translate(1284,894)" d="m0 0h5v2l-5-1z" fill="#1F55AD"/>
<path transform="translate(702,571)" d="m0 0h9v1h-9z" fill="#3B6AB7"/>
<path transform="translate(457,522)" d="m0 0 3 1-1 3-3-3z" fill="#E3A830"/>
<path transform="translate(504,420)" d="m0 0 2 1v2h-4v-2z" fill="#F0D177"/>
<path transform="translate(693,394)" d="m0 0h3l-1 3-3-1z" fill="#AA9D79"/>
<path transform="translate(678,379)" d="m0 0 4 1-1 2-3-1z" fill="#F2D88D"/>
<path transform="translate(834,369)" d="m0 0 4 1v2l-4-1z" fill="#EABC35"/>
<path transform="translate(1380,596)" d="m0 0 4 2h-4z" fill="#053A98"/>
<path transform="translate(502,571)" d="m0 0h2l-1 3-3-1z" fill="#FAF4E4"/>
<path transform="translate(220,551)" d="m0 0h2v3h-3z" fill="#FAF4E4"/>
<path transform="translate(716,352)" d="m0 0v3l-3 1 1-3z" fill="#DBB865"/>
<path transform="translate(195,895)" d="m0 0 6 1-3 1z" fill="#E1A32E"/>
<path transform="translate(1392,606)" d="m0 0 4 1-4 1z" fill="#4B76BD"/>
<path transform="translate(144,524)" d="m0 0 1 4-2 1z" fill="#FAF3E0"/>
<path transform="translate(475,418)" d="m0 0h3l1 3-4-2z" fill="#A69897"/>
<path transform="translate(1417,662)" d="m0 0h6v1h-6z" fill="#809ED0"/>
<path transform="translate(417,581)" d="m0 0h3v2h-3z" fill="#2B2D67"/>
<path transform="translate(748,565)" d="m0 0 4 2-2 1-2-1z" fill="#F9F2DB"/>
<path transform="translate(736,301)" d="m0 0h2l1 3-3-1z" fill="#F9F2DB"/>
<path transform="translate(986,1020)" d="m0 0h5v1h-5z" fill="#EABC35"/>
<path transform="translate(584,559)" d="m0 0 1 3h-2z" fill="#233173"/>
<path transform="translate(389,509)" d="m0 0 3 1-3 1z" fill="#EDC95D"/>
<path transform="translate(426,424)" d="m0 0h3v2l-3-1z" fill="#FDFDFD"/>
<path transform="translate(1425,881)" d="m0 0 3 1h-3z" fill="#0440A4"/>
<path transform="translate(1121,873)" d="m0 0h3l-1 2z" fill="#EABC35"/>
<path transform="translate(1490,837)" d="m0 0 2 1h-3z" fill="#426FBA"/>
<path transform="translate(1412,602)" d="m0 0 3 1-3 1z" fill="#FDFDFD"/>
<path transform="translate(542,579)" d="m0 0h2v2h-2z" fill="#FDFDFD"/>
<path transform="translate(715,560)" d="m0 0h2v2h-2z" fill="#7B8E9E"/>
<path transform="translate(594,547)" d="m0 0h2v2h-2z" fill="#EECC67"/>
<path transform="translate(583,546)" d="m0 0 2 1-1 2z" fill="#C9A464"/>
<path transform="translate(239,512)" d="m0 0 2 1-1 2z" fill="#654C4B"/>
<path transform="translate(468,436)" d="m0 0h2v2h-2z" fill="#F3DC99"/>
<path transform="translate(499,433)" d="m0 0 1 3-2-1z" fill="#F3DC99"/>
<path transform="translate(381,403)" d="m0 0v3z" fill="#EECC67"/>
<path transform="translate(578,369)" d="m0 0 3 1h-3z" fill="#0440A4"/>
<path transform="translate(995,834)" d="m0 0 3 1z" fill="#EABC35"/>
<path transform="translate(518,581)" d="m0 0 1 2-2-1z" fill="#FDFDFD"/>
<path transform="translate(752,567)" d="m0 0 1 2-2-1z" fill="#577FC1"/>
<path transform="translate(555,562)" d="m0 0h2l-1 2z" fill="#0440A4"/>
<path transform="translate(547,562)" d="m0 0h2l-1 2z" fill="#0440A4"/>
<path transform="translate(626,553)" d="m0 0h2l-1 2z" fill="#FDFDFD"/>
<path transform="translate(677,429)" d="m0 0h2l-1 2z" fill="#F0D177"/>
<path transform="translate(370,386)" d="m0 0 3 1z" fill="#FDFDFD"/>
<path transform="translate(367,385)" d="m0 0 3 1z" fill="#FDFDFD"/>
<path transform="translate(818,332)" d="m0 0 1 2-2-1z" fill="#9D925A"/>
<path transform="translate(1306,898)" d="m0 0 2 1z" fill="#FDFDFD"/>
<path transform="translate(1238,894)" d="m0 0 2 1z" fill="#0440A4"/>
<path transform="translate(1127,874)" d="m0 0 2 1z" fill="#F3DC99"/>
<path transform="translate(314,688)" d="m0 0 2 1z" fill="#0440A4"/>
<path transform="translate(413,591)" d="m0 0 2 1z" fill="#0440A4"/>
<path transform="translate(646,562)" d="m0 0 2 1z" fill="#0440A4"/>
<path transform="translate(709,561)" d="m0 0 2 1z" fill="#EABC35"/>
<path transform="translate(158,524)" d="m0 0" fill="#F3DC99"/>
<path transform="translate(517,488)" d="m0 0 2 1z" fill="#F3DC99"/>
<path transform="translate(410,397)" d="m0 0 2 1z" fill="#FDFDFD"/>
<path transform="translate(736,362)" d="m0 0" fill="#2B2D67"/>
<path transform="translate(582,1034)" d="m0 0" fill="#FDFDFD"/>
<path transform="translate(99,938)" d="m0 0" fill="#EABC35"/>
<path transform="translate(98,937)" d="m0 0" fill="#EABC35"/>
<path transform="translate(1134,892)" d="m0 0" fill="#EABC35"/>
<path transform="translate(1276,891)" d="m0 0" fill="#FDFDFD"/>
<path transform="translate(1274,891)" d="m0 0" fill="#FDFDFD"/>
<path transform="translate(1231,890)" d="m0 0" fill="#FDFDFD"/>
<path transform="translate(1428,884)" d="m0 0" fill="#FDFDFD"/>
<path transform="translate(1415,662)" d="m0 0" fill="#FDFDFD"/>
<path transform="translate(1412,662)" d="m0 0" fill="#FDFDFD"/>
<path transform="translate(1250,632)" d="m0 0" fill="#FDFDFD"/>
<path transform="translate(1283,612)" d="m0 0" fill="#FDFDFD"/>
<path transform="translate(1375,607)" d="m0 0" fill="#0440A4"/>
<path transform="translate(1401,605)" d="m0 0" fill="#0440A4"/>
<path transform="translate(1283,605)" d="m0 0" fill="#0440A4"/>
<path transform="translate(1400,604)" d="m0 0" fill="#0440A4"/>
<path transform="translate(1389,603)" d="m0 0" fill="#0440A4"/>
<path transform="translate(428,591)" d="m0 0" fill="#EABC35"/>
<path transform="translate(427,590)" d="m0 0" fill="#EABC35"/>
<path transform="translate(412,590)" d="m0 0" fill="#0440A4"/>
<path transform="translate(411,589)" d="m0 0" fill="#0440A4"/>
<path transform="translate(408,584)" d="m0 0" fill="#0440A4"/>
<path transform="translate(412,578)" d="m0 0" fill="#0440A4"/>
<path transform="translate(910,574)" d="m0 0" fill="#FDFDFD"/>
<path transform="translate(766,569)" d="m0 0" fill="#FDFDFD"/>
<path transform="translate(748,562)" d="m0 0" fill="#FDFDFD"/>
<path transform="translate(713,559)" d="m0 0" fill="#0440A4"/>
<path transform="translate(585,558)" d="m0 0" fill="#FDFDFD"/>
<path transform="translate(388,550)" d="m0 0" fill="#FDFDFD"/>
<path transform="translate(332,541)" d="m0 0" fill="#EABC35"/>
<path transform="translate(645,466)" d="m0 0" fill="#EABC35"/>
<path transform="translate(716,463)" d="m0 0" fill="#FDFDFD"/>
<path transform="translate(505,460)" d="m0 0" fill="#FDFDFD"/>
<path transform="translate(509,417)" d="m0 0" fill="#FDFDFD"/>
<path transform="translate(561,413)" d="m0 0" fill="#EABC35"/>
<path transform="translate(465,397)" d="m0 0" fill="#FDFDFD"/>
<path transform="translate(863,385)" d="m0 0" fill="#0440A4"/>
<path transform="translate(866,384)" d="m0 0" fill="#0440A4"/>
<path transform="translate(582,370)" d="m0 0" fill="#0440A4"/>
<path transform="translate(720,350)" d="m0 0" fill="#FDFDFD"/>
<path transform="translate(749,304)" d="m0 0" fill="#EABC35"/>
<path transform="translate(743,299)" d="m0 0" fill="#FDFDFD"/>
<path transform="translate(744,298)" d="m0 0" fill="#FDFDFD"/>
</svg>
