<?xml version="1.0" encoding="UTF-8"?>
<svg version="1.1" viewBox="0 0 1300 833" width="1280" height="1280" xmlns="http://www.w3.org/2000/svg">
<path transform="translate(0)" d="m0 0h1300v833h-1300z" fill="#FEFEFE"/>
<path transform="translate(17,13)" d="m0 0h1268v61h-657l1 63h656v62h-656v62h655l1 1v60l-5 1h-651v62h656v61l-3 1h-1260l-5-1z" fill="#0A0A77"/>
<path transform="translate(190,754)" d="m0 0h929l166 1v61h-1268v-61z" fill="#D60B0E"/>
<path transform="translate(17,633)" d="m0 0h1268v61l-1037 1-231-1z" fill="#D60B0E"/>
<path transform="translate(17,509)" d="m0 0h1268v61h-1268z" fill="#D60B0E"/>
<path transform="translate(629,137)" d="m0 0h656v62h-656l-1-1v-60z" fill="#D60B0E"/>
<path transform="translate(629,261)" d="m0 0h655l1 1v60l-5 1h-651l-1-1v-60z" fill="#D60B0E"/>
<path transform="translate(629,385)" d="m0 0h656v61l-3 1h-480l-174-1v-60z" fill="#D60B0E"/>
<path transform="translate(628,13)" d="m0 0h657v61h-657z" fill="#D60B0E"/>
<path transform="translate(463,59)" d="m0 0h8l2 4-2 11 6-2 6-3 9 3 6 3-1-8 2 1v2l4 2 19 19v5l-5 1 1 5-3 3h-11l-7 2-21 21-1 2h-2v7l-7 2-3 1 7 7-2 5h-2v2h-8v-2h-2v-2h-2v-2h-2l-5-5-1-3h-2l-6-7-9-9v-8l6 2 7 4v-13l7-7 2 4 4 7 5 4 2 1h12l7-4 4-7v-12l-5-8-6-3-8-1-10 3v2h-2l-2 5-2 4-13-1-3-4v-5l12-11 13-13z" fill="#0A0A76"/>
<path transform="translate(466,82)" d="m0 0 8 1 7 4 5 8v12l-6 9-6 3h-12l-6-4-5-6-2-6-6 6v14l-12-6-15 5 1-10 1-5h-2v-2l-4-2-4-4v-2l15-1 1-4 5-9 3 3 5 9 13 2 2-6 2-3h2v-2l6-3z" fill="#464898"/>
<path transform="translate(97,426)" d="m0 0 7 1 3 2 6 1 7-2 6 1 12 12v2l4 2-1 2h-65v-2l8-7 11-11z" fill="#090976"/>
<path transform="translate(484,124)" d="m0 0 3 4 4 8 15 3-6 7-3 3 1 15-6-2-6-3-6 1-8 4-2-1 2-13-1-3-4-2-5-6 15-3 6-11z" fill="#FEFEFE"/>
<path transform="translate(157,385)" d="m0 0h2l6 12 15 3-6 7-3 3v7l1 8-6-2-6-3-6 1-8 4h-2l2-16-4-2-6-7 15-3z" fill="#FEFEFE"/>
<path transform="translate(103,82)" d="m0 0 3 4 5 9 14 2-2 4-7 7 1 15-13-6-5 2-9 4 1-15-9-9 1-2 13-2z" fill="#FEFEFE"/>
<path transform="translate(592,124)" d="m0 0 3 3 5 9 15 3-5 6h-2v2l-3 3 2 14-6-2-6-3-6 1-8 4h-2l1-15-9-9 4-2 11-2z" fill="#FEFEFE"/>
<path transform="translate(157,124)" d="m0 0h2l6 12 15 3-6 7-4 2 2 16-6-2-6-3-6 1-8 4-2-1 2-15-4-2-6-7 15-3z" fill="#FEFEFE"/>
<path transform="translate(157,36)" d="m0 0h2l6 11 7 2 8 1-2 4-7 6 1 15-4-1-8-4-5 1-9 4-2-1 1-14-9-8v-2l16-2 2-6z" fill="#FEFEFE"/>
<path transform="translate(592,385)" d="m0 0 3 3 5 9 15 3-6 7-4 4 2 14-6-2-6-3-6 1-8 4h-2l1-15-9-9v-1l15-3z" fill="#FEFEFE"/>
<path transform="translate(49,298)" d="m0 0 3 4 5 9 14 2-2 4-7 6 1 15-6-2-6-3-5 1-8 4h-2l1-14-10-10v-1l15-2z" fill="#FEFEFE"/>
<path transform="translate(49,124)" d="m0 0 3 4 4 7v2l16 2-10 10 1 15-5-2-7-3-6 1-9 4 1-15-10-9 4-2 12-1 2-6z" fill="#FEFEFE"/>
<path transform="translate(538,83)" d="m0 0 3 3 4 9 13 2 2 2-9 8v7l1 9-13-6-6 2-6 3-3-1 2-13-7-6-2-5 14-2 6-11z" fill="#FEFEFE"/>
<path transform="translate(592,36)" d="m0 0h2l6 12 15 2v2l-8 7-2 4 2 12-5-1-8-4-6 2-9 4 1-16-9-8v-2l14-2z" fill="#FEFEFE"/>
<path transform="translate(266,36)" d="m0 0h2l6 12 15 2v2l-8 7-2 2 2 14-5-1-8-4-4 1-9 4h-2l1-15-9-8v-2l14-2z" fill="#FEFEFE"/>
<path transform="translate(211,343)" d="m0 0h2l6 11v2l13 1 2 2-10 9 2 11-1 4-12-6-6 2-6 3-3-1 2-13-10-9 1-2 14-2z" fill="#FEFEFE"/>
<path transform="translate(266,298)" d="m0 0 3 3 4 8v2l16 2-6 7-3 1-1 5 2 12-5-1-8-4-5 1-8 4h-2l1-15-9-8v-2l14-2z" fill="#FEFEFE"/>
<path transform="translate(320,257)" d="m0 0 3 3 5 9 15 3-6 7-4 3 2 15-6-2-9-4-13 6 2-16-4-2-6-7 15-3z" fill="#FEFEFE"/>
<path transform="translate(211,257)" d="m0 0h2l6 12 15 3-6 7-3 2 1 16-5-2-7-3-6 1-8 4-2-1 2-14-10-9 4-2 11-2z" fill="#FEFEFE"/>
<path transform="translate(592,211)" d="m0 0h2l6 12 15 3-5 5-5 6 2 12v2l-5-2-8-4-6 2-9 4 1-16-9-8 2-2 13-2z" fill="#FEFEFE"/>
<path transform="translate(429,343)" d="m0 0 3 3 5 9 14 2-2 4-7 7 1 15-12-6-4 1-11 5 1-15-9-9 1-2 14-1 2-6z" fill="#FEFEFE"/>
<path transform="translate(484,298)" d="m0 0 3 4 5 9 14 2-2 4-7 6v7l1 8-15-5-11 5-2-1 2-13-9-9v-2l15-2 2-6z" fill="#FEFEFE"/>
<path transform="translate(320,171)" d="m0 0 3 3 5 9 9 2 6 1-6 7-4 2 1 9 1 7-6-2-6-3-6 1-8 4h-2l1-15-9-9v-1l13-2 3-3z" fill="#FEFEFE"/>
<path transform="translate(320,83)" d="m0 0h2l6 12 13 2 1 3-8 7-1 3 2 12-5-1-8-4-6 2-9 4 1-16-9-8v-2l15-2z" fill="#FEFEFE"/>
<path transform="translate(49,385)" d="m0 0 3 4 4 7v2l15 2v2l-8 7-1 1 1 15-6-2-5-3-7 1-8 4-2-1 2-14-10-9v-1l16-2 2-6z" fill="#FEFEFE"/>
<path transform="translate(320,343)" d="m0 0 4 4 4 8 13 2 2 2-10 9 2 15-13-6-6 2-9 4 1-16-9-8 1-2 14-2z" fill="#FEFEFE"/>
<path transform="translate(592,299)" d="m0 0h2l5 10v2l16 2-6 7-4 4 2 14-5-1-8-4-15 5 1-15-5-4v-2l-4-2v-2l14-2z" fill="#FEFEFE"/>
<path transform="translate(49,211)" d="m0 0 2 1 5 10v2l13 1 2 2-9 9 1 15-13-6-6 2-8 4 1-15-10-10 15-3z" fill="#FEFEFE"/>
<path transform="translate(483,36)" d="m0 0h2l7 12 14 2-2 4-7 6v7l1 8-4-1-9-4-6 2-6 3-3-1 2-13-10-10 1-1 14-2z" fill="#FEFEFE"/>
<path transform="translate(484,385)" d="m0 0 3 4 4 8 15 3-6 7-3 3 1 15-6-2-6-3-6 1-8 4-2-1 2-14-10-9v-1l16-2 2-6z" fill="#FEFEFE"/>
<path transform="translate(537,343)" d="m0 0 3 1 5 10v2l13 1 2 2-9 8 1 16-13-6-6 2-9 4 2-15-10-10 1-1 14-2z" fill="#FEFEFE"/>
<path transform="translate(483,211)" d="m0 0h2l6 12 13 2 2 2-7 7-2 1v7l1 9-13-6-5 2-7 3-3-1 2-13-10-9 2-2 13-2z" fill="#FEFEFE"/>
<path transform="translate(212,171)" d="m0 0 3 4 4 8 9 2 6 1-6 7-3 3v7l1 8-6-2-6-3-6 1-8 4h-2l2-14-10-10v-1l13-2 4-4z" fill="#FEFEFE"/>
<path transform="translate(103,171)" d="m0 0 4 5 3 6v2l15 2-2 4-7 6 1 15-10-4-5-1-11 5-2-1 2-10v-4l-8-7-2-3 16-2 2-6z" fill="#FEFEFE"/>
<path transform="translate(375,124)" d="m0 0 4 5 3 6v2l16 2-1 2h-2v2l-7 6 1 15-11-5-7 1-8 4h-1l1-15-10-9 4-2 12-1 2-6z" fill="#FEFEFE"/>
<path transform="translate(49,36)" d="m0 0 3 3 5 9 14 2-2 4-7 6 1 15-7-2-5-3-5 1-8 4h-2l1-11 1-4-4-2-6-6v-2l14-2 6-11z" fill="#FEFEFE"/>
<path transform="translate(266,385)" d="m0 0 3 3 4 8v2l16 2-5 6-5 4 2 15-6-2-6-3-6 1-8 4h-2l1-15-9-9 4-2 11-2z" fill="#FEFEFE"/>
<path transform="translate(103,343)" d="m0 0 3 3 4 8v2l15 1-2 4-6 6h-2l2 11v5l-13-6-6 2-8 4 1-15-9-9v-2l14-2z" fill="#FEFEFE"/>
<path transform="translate(375,211)" d="m0 0 3 3 4 8v2l13 1 2 2-9 9 1 15-14-6-13 6 1-15-9-9 2-2 13-1 2-6z" fill="#FEFEFE"/>
<path transform="translate(157,211)" d="m0 0h2l6 12 15 3-4 5-5 4 1 16-13-6-6 2-9 4 2-15-10-9 2-2 13-2z" fill="#FEFEFE"/>
<path transform="translate(429,171)" d="m0 0 4 5 3 6v2l15 2-2 4-7 6 1 15-12-5-5 1-10 4 1-15-9-8v-2l15-2 2-6z" fill="#FEFEFE"/>
<path transform="translate(266,124)" d="m0 0 3 3 4 8v2l12 1 4 2-10 9 1 15-11-5-6 1-10 4 1-15-9-9 4-2 11-2z" fill="#FEFEFE"/>
<path transform="translate(211,83)" d="m0 0h2l6 12 14 2v3l-4 2v2l-4 3 1 16-13-6-6 2-6 3-3-1 2-13-10-10 1-1 14-2z" fill="#FEFEFE"/>
<path transform="translate(375,385)" d="m0 0 3 3 4 8v2l15 2-2 4-7 6 1 15-11-5-7 1-9 4 1-15-10-9v-1l16-2 2-6z" fill="#FEFEFE"/>
<path transform="translate(375,298)" d="m0 0 3 4 5 9 14 2-2 4-7 6 1 15-6-2-6-3-5 1-8 4h-2l1-15-9-8v-2l14-2z" fill="#FEFEFE"/>
<path transform="translate(266,211)" d="m0 0 4 4 4 8 13 2 2 2-10 9 1 14-9-3-5-2-13 6 2-16h-2v-2l-4-2-4-5 9-2h6l2-6z" fill="#FEFEFE"/>
<path transform="translate(538,171)" d="m0 0 3 4 4 8 15 3v2l-8 7-1 1v7l1 8-6-2-6-3-6 1-8 4-2-1 3-14-3-1v-2l-4-2-4-5 16-2 2-6z" fill="#FEFEFE"/>
<path transform="translate(538,257)" d="m0 0 3 4 4 8 15 3-6 7-4 2 2 16-11-5-7 1-8 4-2-1 2-14-10-9 4-2 11-2z" fill="#FEFEFE"/>
<path transform="translate(429,257)" d="m0 0 3 3 4 8v2l12 1 3 2-9 9 1 15-11-5-7 1-9 4 1-15-9-9 4-2 11-1 2-6z" fill="#FEFEFE"/>
<path transform="translate(429,83)" d="m0 0 3 3 5 9 14 2-2 4-7 7 1 15-12-6-15 5 1-10 1-5h-2v-2l-4-2-4-4v-2l15-1 1-4z" fill="#FEFEFE"/>
<path transform="translate(157,299)" d="m0 0h2l5 9v3l16 2v2h-2v2l-7 6 1 15-15-5-11 5h-2l2-14-10-10v-1l15-2z" fill="#FEFEFE"/>
<path transform="translate(103,257)" d="m0 0 4 5 3 6v2l12 1 3 2-9 9 1 15-14-6-13 6 1-15-10-10 11-2h5l2-6z" fill="#FEFEFE"/>
<path transform="translate(375,35)" d="m0 0 3 4 5 9 14 2-2 4-7 6 1 15-6-2-6-3-5 1-8 4h-2l1-15-8-7-1-3 14-2z" fill="#FEFEFE"/>
<path transform="translate(518,100)" d="m0 0 4 4-3 4h-2l-2 4-8 7-11 11-1 2h-2v2h-2l-1 2-6-11-7 12-5-1 1-6h2l2-4 20-20 7-2h11z" fill="#474999"/>
<path transform="translate(122,62)" d="m0 0h6l4 2 3 5 1 5 11 4-2 4-5 1-9-3-2 2 1 4 4 4-1 4-4 1-2-4h-2v-2l-3-1v-2h-2l-4-4v-2h-2v-2h-2v-2h-2l2-4z" fill="#474999"/>
<path transform="translate(55,131)" d="m0 0h10l6 5v2l4 2 4 5-2 5-12 12-1 3-5 3-3 3-5-1-5-5-5-4 6-3 6 1 10 5-2-10v-5l9-9-14-3-2-5z" fill="#474999"/>
<path transform="translate(95,422)" d="m0 0h9l5 3 7-1h10l4 2 4 4v2h2v2h2v2h2v2l4 2 2 4h2v2h-6l-16-16-6-1-8 2-6-2-4-2-7 1-17 17-2 1h-6l6-7 15-15z" fill="#474999"/>
<path transform="translate(493,428)" d="m0 0 5 2 4 5 1 6 7 3 2 2-13 1h-20l-2-4 1-4 9-9z" fill="#474999"/>
<path transform="translate(427,117)" d="m0 0h2l1 9 4 2 2 4 4 2v2l4 2v2h2l5 5 1 3h2v2h2v2h2v2h8v-2l5-5 2 4-1 7-2-2-4 3h-8l-8-7-25-25-1-7-2-1z" fill="#464898"/>
<path transform="translate(509,408)" d="m0 0 4 2-1 4-5 4-2 5 5 3v-2l7-6 4 2-2 4-7 8 4 2 4 4v3h-2v2l-6-3v-2h-2v-2h-2v-2h-2v-2h-2l-7-7v-6l7-6z" fill="#474999"/>
<path transform="translate(465,54)" d="m0 0 5 5-10 2-2 4-20 20-3 2-2 3-2-6 28-28z" fill="#474999"/>
<path transform="translate(501,55)" d="m0 0 2 1-4 5 1 3 4 2 4 4v2h2v2h2v2h2v2h2v2h2v2h2v2l4 2v2h2l1 8-6 1v-6l-20-20-5-4v-7z" fill="#454798"/>
<path transform="translate(143,41)" d="m0 0 4 4-3 4v1h-8l10 10-1 14-1-4h-2l-4-4v-2l-4-2-3-4v-5l5-6z" fill="#404295"/>
<path transform="translate(70,114)" d="m0 0 4 2 17 17-1 4h-4l-14-14v-2l-6-1 2-4z" fill="#474999"/>
<path transform="translate(90,111)" d="m0 0h1v11l11-6 6 2-6 7-6 6-4-2-5-6 1-9h2z" fill="#414395"/>
<path transform="translate(105,80)" d="m0 0 8 3 2 5 6 3v2h2l2 4-14-1-5-8-2-6z" fill="#444697"/>
<path transform="translate(70,140)" d="m0 0 4 2 3 3v3h-2v2l-8 2-5 4-1-7z" fill="#12127B"/>
<path transform="translate(55,131)" d="m0 0h10l6 5v2l4 2 4 5v2h-2l-5-6v-2l-12-1-4-1-2-5z" fill="#474999"/>
<path transform="translate(47,158)" d="m0 0 6 1 5 4-1 4-1 2-5-1-3-3v-2l-3-1v-3z" fill="#0D0D78"/>
<path transform="translate(490,435)" d="m0 0 5 1 1 5-5 5-5-2-1-4z" fill="#090976"/>
<path transform="translate(123,68)" d="m0 0 5 1 1 5-5 5-4-2-2-4z" fill="#090976"/>
<path transform="translate(84,101)" d="m0 0 4 4-8 7-3 1v-2h-2v-3l7-6z" fill="#474999"/>
<path transform="translate(143,41)" d="m0 0 4 4-3 4v1h-9l1-3z" fill="#474999"/>
<path transform="translate(101,83)" d="m0 0 1 3-6 10h-3l-1-4 7-8z" fill="#444697"/>
<path transform="translate(55,133)" d="m0 0h10l4 3v2h-9l-4-1z" fill="#10117A"/>
<path transform="translate(263,302)" d="m0 0 1 2-5 8h-5l5-5z" fill="#292A88"/>
<path transform="translate(123,100)" d="m0 0 1 3-6 6h-2l-1 4v-5z" fill="#474999"/>
</svg>
